<mxfile host="app.diagrams.net" modified="2023-09-08T15:22:52.309Z" agent="Mozilla/5.0 (X11; Linux x86_64) AppleWebKit/537.36 (KHTML, like Gecko) Chrome/116.0.0.0 Safari/537.36" etag="NQG-UkGXhqQtEvWvMJ3x" version="21.7.2" type="github" pages="14">
  <diagram name="Splash" id="SnSWdE3cnkkYb9gt4uQO">
    <mxGraphModel dx="1364" dy="761" grid="1" gridSize="10" guides="1" tooltips="1" connect="1" arrows="1" fold="1" page="1" pageScale="1" pageWidth="827" pageHeight="1169" math="0" shadow="0">
      <root>
        <mxCell id="0" />
        <mxCell id="1" parent="0" />
        <mxCell id="DDxbfYe-S6l6onyHZQn_-1" value="" style="group;fontFamily=Comic Sans MS;" parent="1" connectable="0" vertex="1">
          <mxGeometry x="310" y="171" width="200" height="390" as="geometry" />
        </mxCell>
        <mxCell id="NAKtDn4KBUyRxlzjLTp2-1" value="" style="group;fillColor=default;container=0;" parent="DDxbfYe-S6l6onyHZQn_-1" connectable="0" vertex="1">
          <mxGeometry width="200" height="390" as="geometry" />
        </mxCell>
        <mxCell id="SXAGtaChH4ZoyV9EJ4cn-1" value="" style="verticalLabelPosition=bottom;verticalAlign=top;html=1;shadow=0;dashed=0;strokeWidth=1;shape=mxgraph.android.phone2;strokeColor=#c0c0c0;" parent="DDxbfYe-S6l6onyHZQn_-1" vertex="1">
          <mxGeometry width="200" height="390" as="geometry" />
        </mxCell>
        <UserObject label="" link="data:page/id,BIANiUHFErxnDz7vMMGn" id="SXAGtaChH4ZoyV9EJ4cn-3">
          <mxCell style="rounded=0;whiteSpace=wrap;html=1;fillColor=#FFF4FF;strokeColor=none;rotation=0;" parent="DDxbfYe-S6l6onyHZQn_-1" vertex="1">
            <mxGeometry x="8" y="35" width="185" height="319" as="geometry" />
          </mxCell>
        </UserObject>
        <mxCell id="8fLUY1IiEA7ZCkrWoy5u-5" value="" style="strokeWidth=1;html=1;shadow=0;dashed=0;shape=mxgraph.android.statusBar;align=center;fillColor=#000000;strokeColor=#ffffff;fontColor=#ffffff;fontSize=10;sketch=0;rotation=0;" parent="DDxbfYe-S6l6onyHZQn_-1" vertex="1">
          <mxGeometry x="8" y="35" width="185" height="15.825" as="geometry" />
        </mxCell>
        <mxCell id="ywfwT9-VWpK5B6TDCBuF-4" value="&lt;font style=&quot;font-size: 18px;&quot; face=&quot;montserrat alternates&quot;&gt;&lt;font color=&quot;#997da4&quot; style=&quot;font-size: 18px;&quot;&gt;Mãe&lt;/font&gt;&lt;font style=&quot;font-size: 18px;&quot; color=&quot;#997da4&quot;&gt;&amp;nbsp;&lt;/font&gt;&lt;font style=&quot;font-size: 18px;&quot; color=&quot;#bbe7e3&quot;&gt;Gestante&lt;/font&gt;&lt;/font&gt;" style="text;strokeColor=none;fillColor=none;html=1;fontSize=24;fontStyle=1;verticalAlign=top;align=center;fontFamily=gayathri;" parent="DDxbfYe-S6l6onyHZQn_-1" vertex="1">
          <mxGeometry x="11" y="179.5" width="180" height="30" as="geometry" />
        </mxCell>
      </root>
    </mxGraphModel>
  </diagram>
  <diagram id="BIANiUHFErxnDz7vMMGn" name="Login">
    <mxGraphModel grid="1" page="1" gridSize="10" guides="1" tooltips="1" connect="1" arrows="1" fold="1" pageScale="1" pageWidth="827" pageHeight="1169" math="0" shadow="0">
      <root>
        <mxCell id="0" />
        <mxCell id="1" parent="0" />
        <mxCell id="5UXz4fF7a9L7EPNDArY_-2" value="" style="group;fillColor=none;" connectable="0" vertex="1" parent="1">
          <mxGeometry x="310" y="170" width="200" height="390" as="geometry" />
        </mxCell>
        <mxCell id="O_aFsrZkylHiC08Z81X4-3" value="" style="verticalLabelPosition=bottom;verticalAlign=top;html=1;shadow=0;dashed=0;strokeWidth=1;shape=mxgraph.android.phone2;strokeColor=#c0c0c0;" vertex="1" parent="5UXz4fF7a9L7EPNDArY_-2">
          <mxGeometry width="200" height="390" as="geometry" />
        </mxCell>
        <mxCell id="O_aFsrZkylHiC08Z81X4-4" value="" style="rounded=0;whiteSpace=wrap;html=1;fillColor=#FFF4FF;strokeColor=none;rotation=0;" vertex="1" parent="5UXz4fF7a9L7EPNDArY_-2">
          <mxGeometry x="8" y="35" width="185" height="319" as="geometry" />
        </mxCell>
        <mxCell id="O_aFsrZkylHiC08Z81X4-5" value="" style="strokeWidth=1;html=1;shadow=0;dashed=0;shape=mxgraph.android.statusBar;align=center;fillColor=#000000;strokeColor=#ffffff;fontColor=#ffffff;fontSize=10;sketch=0;rotation=0;" vertex="1" parent="5UXz4fF7a9L7EPNDArY_-2">
          <mxGeometry x="8" y="35" width="185" height="15.825" as="geometry" />
        </mxCell>
        <mxCell id="zGtbvfxY-zkahoXZE4lR-11" value="" style="group" connectable="0" vertex="1" parent="5UXz4fF7a9L7EPNDArY_-2">
          <mxGeometry x="8" y="50.81999999999999" width="185" height="16.879999999999995" as="geometry" />
        </mxCell>
        <mxCell id="zGtbvfxY-zkahoXZE4lR-4" value="&lt;font color=&quot;#fff4ff&quot;&gt;Login&lt;/font&gt;" style="whiteSpace=wrap;html=1;shadow=0;dashed=0;fontSize=10;align=left;fillColor=#F5BFE9;strokeColor=none;fontColor=#FFFFFF;rotation=0;movable=1;resizable=1;rotatable=1;deletable=1;editable=1;locked=0;connectable=1;" vertex="1" parent="zGtbvfxY-zkahoXZE4lR-11">
          <mxGeometry x="13" width="172" height="16.88" as="geometry" />
        </mxCell>
        <UserObject label="" id="zGtbvfxY-zkahoXZE4lR-8">
          <mxCell style="rounded=0;whiteSpace=wrap;html=1;strokeColor=none;rotation=0;fillColor=#F5BFE9;movable=1;resizable=1;rotatable=1;deletable=1;editable=1;locked=0;connectable=1;" vertex="1" parent="zGtbvfxY-zkahoXZE4lR-11">
            <mxGeometry width="12.8" height="16.88" as="geometry" />
          </mxCell>
        </UserObject>
        <mxCell id="zGtbvfxY-zkahoXZE4lR-5" value="" style="html=1;verticalLabelPosition=bottom;align=center;labelBackgroundColor=#ffffff;verticalAlign=top;strokeWidth=1;strokeColor=#FFF4FF;shadow=0;dashed=0;shape=mxgraph.ios7.icons.play;rotation=-180;fillColor=#F5BFE9;movable=1;resizable=1;rotatable=1;deletable=1;editable=1;locked=0;connectable=1;" vertex="1" parent="zGtbvfxY-zkahoXZE4lR-11">
          <mxGeometry x="3.000000000000001" y="5" width="7" height="7" as="geometry" />
        </mxCell>
        <mxCell id="HMTbrUTO_dSp9qaD87MJ-6" value="&lt;font style=&quot;font-size: 10px;&quot;&gt;&lt;font style=&quot;font-size: 10px;&quot; color=&quot;#f5bfe9&quot;&gt;Realizar o cadastro da &lt;/font&gt;&lt;font style=&quot;font-size: 10px;&quot; color=&quot;#997da4&quot;&gt;Gestante&lt;/font&gt;&lt;font style=&quot;font-size: 10px;&quot; color=&quot;#f5bfe9&quot;&gt; ou do &lt;/font&gt;&lt;font color=&quot;#997da4&quot; style=&quot;font-size: 10px;&quot;&gt;Profissional&lt;/font&gt;&lt;/font&gt;" style="text;html=1;strokeColor=none;fillColor=none;align=center;verticalAlign=middle;whiteSpace=wrap;rounded=0;container=0;" vertex="1" parent="5UXz4fF7a9L7EPNDArY_-2">
          <mxGeometry x="20.5" y="282" width="160" height="30" as="geometry" />
        </mxCell>
        <UserObject label="" link="data:page/id,57h_AQZXzBzCqInqmfmL" id="HMTbrUTO_dSp9qaD87MJ-8">
          <mxCell style="rounded=0;whiteSpace=wrap;html=1;fillColor=none;strokeColor=none;rotation=0;container=0;" vertex="1" parent="5UXz4fF7a9L7EPNDArY_-2">
            <mxGeometry x="80.5" y="297" width="56" height="15" as="geometry" />
          </mxCell>
        </UserObject>
        <UserObject label="" link="data:page/id,gBK0wMPXVRq-rngcEq0a" id="HMTbrUTO_dSp9qaD87MJ-7">
          <mxCell style="rounded=0;whiteSpace=wrap;html=1;fillColor=none;strokeColor=none;rotation=0;container=0;" vertex="1" parent="5UXz4fF7a9L7EPNDArY_-2">
            <mxGeometry x="122.5" y="283" width="44" height="14" as="geometry" />
          </mxCell>
        </UserObject>
        <mxCell id="wJo-4dYzqNGXyU4V46Nf-1" value="&lt;font face=&quot;montserrat alternates&quot; style=&quot;font-size: 16px;&quot;&gt;&lt;font color=&quot;#997da4&quot; style=&quot;font-size: 16px;&quot;&gt;Mãe&lt;/font&gt;&lt;br style=&quot;&quot;&gt;&lt;font color=&quot;#bbe7e3&quot; style=&quot;font-size: 16px;&quot;&gt;Gestante&lt;/font&gt;&lt;/font&gt;" style="text;strokeColor=none;fillColor=none;html=1;fontSize=18;fontStyle=1;verticalAlign=middle;align=center;fontFamily=gayathri;spacing=2;whiteSpace=wrap;" vertex="1" parent="1">
          <mxGeometry x="350" y="269" width="121" height="62.5" as="geometry" />
        </mxCell>
        <UserObject label="" link="data:page/id,qCZ3eRasGXgaiYmvCPpY" id="HBMIIp-TvBUo0InBcvD0-1">
          <mxCell style="group" connectable="0" vertex="1" parent="1">
            <mxGeometry x="326" y="318" width="169.8" height="117.88" as="geometry" />
          </mxCell>
        </UserObject>
        <UserObject label="&lt;font color=&quot;#fff4ff&quot;&gt;Entrar&lt;/font&gt;" link="data:page/id,qCZ3eRasGXgaiYmvCPpY" id="i-RKvNNZcg9Gm4h40rNk-1">
          <mxCell style="rounded=1;html=1;shadow=0;dashed=0;whiteSpace=wrap;fontSize=10;fillColor=#F5BFE9;align=center;strokeColor=#E6E6E6;fontColor=#333333;container=0;" vertex="1" parent="HBMIIp-TvBUo0InBcvD0-1">
            <mxGeometry x="35" y="102" width="105.5" height="16.88" as="geometry" />
          </mxCell>
        </UserObject>
        <mxCell id="acIWSvKECpf41kCrXZTo-7" value="" style="group" connectable="0" vertex="1" parent="1">
          <mxGeometry x="326.6" y="365" width="168.8" height="36.879999999999995" as="geometry" />
        </mxCell>
        <mxCell id="acIWSvKECpf41kCrXZTo-8" value="&lt;font color=&quot;#997da4&quot;&gt;*********&lt;/font&gt;" style="whiteSpace=wrap;html=1;shadow=0;dashed=0;fontSize=10;align=left;fillColor=#FFFFFF;strokeColor=#FFFFFF;fontColor=#4D4D4D;container=0;" vertex="1" parent="acIWSvKECpf41kCrXZTo-7">
          <mxGeometry y="20" width="168.8" height="16.88" as="geometry" />
        </mxCell>
        <mxCell id="acIWSvKECpf41kCrXZTo-9" value="&lt;font color=&quot;#f5bfe9&quot; style=&quot;font-size: 9px;&quot;&gt;Senha&lt;/font&gt;" style="text;fontSize=10;verticalAlign=middle;align=left;spacingTop=2;whiteSpace=wrap;html=1;container=0;" vertex="1" parent="acIWSvKECpf41kCrXZTo-7">
          <mxGeometry width="54" height="20" as="geometry" />
        </mxCell>
        <mxCell id="acIWSvKECpf41kCrXZTo-10" value="" style="group" connectable="0" vertex="1" parent="1">
          <mxGeometry x="326.6" y="328" width="168.8" height="36.879999999999995" as="geometry" />
        </mxCell>
        <mxCell id="acIWSvKECpf41kCrXZTo-11" value="&lt;font color=&quot;#997da4&quot;&gt;a.albaroti@gmail.com&lt;/font&gt;" style="whiteSpace=wrap;html=1;shadow=0;dashed=0;fontSize=10;align=left;fillColor=#FFFFFF;strokeColor=#FFFFFF;fontColor=#4D4D4D;container=0;" vertex="1" parent="acIWSvKECpf41kCrXZTo-10">
          <mxGeometry y="20" width="168.8" height="16.88" as="geometry" />
        </mxCell>
        <mxCell id="acIWSvKECpf41kCrXZTo-12" value="&lt;font color=&quot;#f5bfe9&quot; style=&quot;font-size: 9px;&quot;&gt;E-mail&lt;/font&gt;" style="text;fontSize=10;verticalAlign=middle;align=left;spacingTop=2;whiteSpace=wrap;html=1;container=0;" vertex="1" parent="acIWSvKECpf41kCrXZTo-10">
          <mxGeometry width="54" height="20" as="geometry" />
        </mxCell>
      </root>
    </mxGraphModel>
  </diagram>
  <diagram name="Home" id="qCZ3eRasGXgaiYmvCPpY">
    <mxGraphModel dx="1364" dy="761" grid="1" gridSize="10" guides="1" tooltips="1" connect="1" arrows="1" fold="1" page="1" pageScale="1" pageWidth="827" pageHeight="1169" math="0" shadow="0">
      <root>
        <mxCell id="m5i6-OjE-I0rYFLxhmkv-0" />
        <mxCell id="m5i6-OjE-I0rYFLxhmkv-1" parent="m5i6-OjE-I0rYFLxhmkv-0" />
        <mxCell id="ugmzzr_RP0WeH2ozHvsx-8" value="" style="group" parent="m5i6-OjE-I0rYFLxhmkv-1" connectable="0" vertex="1">
          <mxGeometry x="310" y="170" width="200" height="390" as="geometry" />
        </mxCell>
        <mxCell id="bckFjWa2FKDfEurvZs6q-3" value="" style="group" parent="ugmzzr_RP0WeH2ozHvsx-8" connectable="0" vertex="1">
          <mxGeometry x="8" y="50.81999999999999" width="185" height="16.879999999999995" as="geometry" />
        </mxCell>
        <mxCell id="r9jqQ2SmQTeMgDwlO7rl-1" value="&lt;font color=&quot;#fff4ff&quot;&gt;Login&lt;/font&gt;" style="whiteSpace=wrap;html=1;shadow=0;dashed=0;fontSize=10;align=left;fillColor=#F5BFE9;strokeColor=none;fontColor=#FFFFFF;rotation=0;movable=1;resizable=1;rotatable=1;deletable=1;editable=1;locked=0;connectable=1;container=0;" parent="bckFjWa2FKDfEurvZs6q-3" vertex="1">
          <mxGeometry x="13" width="172" height="16.88" as="geometry" />
        </mxCell>
        <mxCell id="r9jqQ2SmQTeMgDwlO7rl-2" value="" style="rounded=0;whiteSpace=wrap;html=1;strokeColor=none;rotation=0;fillColor=#F5BFE9;movable=1;resizable=1;rotatable=1;deletable=1;editable=1;locked=0;connectable=1;container=0;" parent="bckFjWa2FKDfEurvZs6q-3" vertex="1">
          <mxGeometry width="12.8" height="16.88" as="geometry" />
        </mxCell>
        <mxCell id="r9jqQ2SmQTeMgDwlO7rl-3" value="" style="html=1;verticalLabelPosition=bottom;align=center;labelBackgroundColor=#ffffff;verticalAlign=top;strokeWidth=1;strokeColor=#FFF4FF;shadow=0;dashed=0;shape=mxgraph.ios7.icons.play;rotation=-180;fillColor=#F5BFE9;movable=1;resizable=1;rotatable=1;deletable=1;editable=1;locked=0;connectable=1;container=0;" parent="bckFjWa2FKDfEurvZs6q-3" vertex="1">
          <mxGeometry x="3" y="5" width="7" height="7" as="geometry" />
        </mxCell>
        <mxCell id="f5L-JMwn4Uu5GPbY-b8Y-1" value="" style="group;fillColor=default;container=0;" parent="ugmzzr_RP0WeH2ozHvsx-8" connectable="0" vertex="1">
          <mxGeometry width="200" height="390" as="geometry" />
        </mxCell>
        <mxCell id="f5L-JMwn4Uu5GPbY-b8Y-2" value="" style="verticalLabelPosition=bottom;verticalAlign=top;html=1;shadow=0;dashed=0;strokeWidth=1;shape=mxgraph.android.phone2;strokeColor=#c0c0c0;" parent="ugmzzr_RP0WeH2ozHvsx-8" vertex="1">
          <mxGeometry width="200" height="390" as="geometry" />
        </mxCell>
        <mxCell id="f5L-JMwn4Uu5GPbY-b8Y-3" value="" style="rounded=0;whiteSpace=wrap;html=1;fillColor=#FFF4FF;strokeColor=none;rotation=0;" parent="ugmzzr_RP0WeH2ozHvsx-8" vertex="1">
          <mxGeometry x="8" y="35" width="185" height="319" as="geometry" />
        </mxCell>
        <mxCell id="f5L-JMwn4Uu5GPbY-b8Y-4" value="" style="strokeWidth=1;html=1;shadow=0;dashed=0;shape=mxgraph.android.statusBar;align=center;fillColor=#000000;strokeColor=#ffffff;fontColor=#ffffff;fontSize=10;sketch=0;rotation=0;" parent="ugmzzr_RP0WeH2ozHvsx-8" vertex="1">
          <mxGeometry x="8" y="35" width="185" height="15.825" as="geometry" />
        </mxCell>
        <mxCell id="amkfXdlXgwvalFQdp8WX-0" value="" style="group" parent="m5i6-OjE-I0rYFLxhmkv-1" connectable="0" vertex="1">
          <mxGeometry x="318" y="220.82" width="185" height="16.879999999999995" as="geometry" />
        </mxCell>
        <mxCell id="amkfXdlXgwvalFQdp8WX-1" value="&lt;font color=&quot;#fff4ff&quot;&gt;Home&lt;/font&gt;" style="whiteSpace=wrap;html=1;shadow=0;dashed=0;fontSize=10;align=left;fillColor=#F5BFE9;strokeColor=none;fontColor=#FFFFFF;rotation=0;movable=1;resizable=1;rotatable=1;deletable=1;editable=1;locked=0;connectable=1;" parent="amkfXdlXgwvalFQdp8WX-0" vertex="1">
          <mxGeometry x="13" width="172" height="16.88" as="geometry" />
        </mxCell>
        <UserObject label="" link="data:page/id,BIANiUHFErxnDz7vMMGn" id="amkfXdlXgwvalFQdp8WX-2">
          <mxCell style="rounded=0;whiteSpace=wrap;html=1;strokeColor=none;rotation=0;fillColor=#F5BFE9;movable=1;resizable=1;rotatable=1;deletable=1;editable=1;locked=0;connectable=1;" parent="amkfXdlXgwvalFQdp8WX-0" vertex="1">
            <mxGeometry width="12.8" height="16.88" as="geometry" />
          </mxCell>
        </UserObject>
        <mxCell id="amkfXdlXgwvalFQdp8WX-3" value="" style="html=1;verticalLabelPosition=bottom;align=center;labelBackgroundColor=#ffffff;verticalAlign=top;strokeWidth=1;strokeColor=#FFF4FF;shadow=0;dashed=0;shape=mxgraph.ios7.icons.play;rotation=-180;fillColor=#F5BFE9;movable=1;resizable=1;rotatable=1;deletable=1;editable=1;locked=0;connectable=1;" parent="amkfXdlXgwvalFQdp8WX-0" vertex="1">
          <mxGeometry x="3.000000000000001" y="5" width="7" height="7" as="geometry" />
        </mxCell>
        <mxCell id="z36tPiYCFk2nA_6U7qmP-15" value="" style="group" parent="m5i6-OjE-I0rYFLxhmkv-1" connectable="0" vertex="1">
          <mxGeometry x="325" y="246" width="173" height="35" as="geometry" />
        </mxCell>
        <mxCell id="ugmzzr_RP0WeH2ozHvsx-22" value="" style="shape=rect;shadow=0;sketch=0;hachureGap=4;pointerEvents=0;fontFamily=Architects Daughter;fontSource=https%3A%2F%2Ffonts.googleapis.com%2Fcss%3Ffamily%3DArchitects%2BDaughter;fontSize=20;container=0;strokeColor=none;" parent="z36tPiYCFk2nA_6U7qmP-15" vertex="1">
          <mxGeometry width="172" height="35" as="geometry" />
        </mxCell>
        <mxCell id="ugmzzr_RP0WeH2ozHvsx-23" value="" style="shape=ellipse;strokeColor=none;fillColor=#F5BFE9;fontSize=8;fontColor=#000000;align=left;spacingTop=1;spacingLeft=2;labelPosition=right;verticalLabelPosition=middle;verticalAlign=middle;sketch=0;hachureGap=4;pointerEvents=0;fontFamily=Verdana;html=1;container=0;" parent="z36tPiYCFk2nA_6U7qmP-15" vertex="1">
          <mxGeometry x="5" y="5" width="10" height="10" as="geometry">
            <mxPoint x="5" y="5" as="offset" />
          </mxGeometry>
        </mxCell>
        <mxCell id="z36tPiYCFk2nA_6U7qmP-1" value="&lt;font color=&quot;#8ebbbf&quot; style=&quot;font-size: 7px;&quot;&gt;11-09-2023 14:45&lt;/font&gt;" style="text;html=1;strokeColor=none;fillColor=none;align=right;verticalAlign=middle;whiteSpace=wrap;rounded=0;" parent="z36tPiYCFk2nA_6U7qmP-15" vertex="1">
          <mxGeometry x="110" y="3" width="60" height="10" as="geometry" />
        </mxCell>
        <mxCell id="z36tPiYCFk2nA_6U7qmP-4" value="&lt;font color=&quot;#bbe7e3&quot; face=&quot;Garamond&quot; style=&quot;font-size: 9px;&quot;&gt;Douglas G. Souza&lt;/font&gt;" style="text;html=1;strokeColor=none;fillColor=none;align=left;verticalAlign=middle;whiteSpace=wrap;rounded=0;rotation=0;" parent="z36tPiYCFk2nA_6U7qmP-15" vertex="1">
          <mxGeometry x="20" y="19" width="147" height="10" as="geometry" />
        </mxCell>
        <mxCell id="z36tPiYCFk2nA_6U7qmP-6" value="&lt;font color=&quot;#8ebbbf&quot; style=&quot;font-size: 10px;&quot;&gt;Obstetra&lt;/font&gt;" style="text;html=1;strokeColor=none;fillColor=none;align=left;verticalAlign=middle;whiteSpace=wrap;rounded=0;" parent="z36tPiYCFk2nA_6U7qmP-15" vertex="1">
          <mxGeometry x="19" y="5" width="60" height="10" as="geometry" />
        </mxCell>
        <UserObject label="" link="data:page/id,McrZRZqOmT0FwNIJVjr4" id="DMmUg4yZT7o5YUSDw8y7-9">
          <mxCell style="group" parent="m5i6-OjE-I0rYFLxhmkv-1" connectable="0" vertex="1">
            <mxGeometry x="487" y="221.26" width="16" height="16" as="geometry" />
          </mxCell>
        </UserObject>
        <mxCell id="DMmUg4yZT7o5YUSDw8y7-3" value="" style="group" parent="DMmUg4yZT7o5YUSDw8y7-9" connectable="0" vertex="1">
          <mxGeometry x="6" y="1.740000000000009" width="3" height="13" as="geometry" />
        </mxCell>
        <mxCell id="DMmUg4yZT7o5YUSDw8y7-4" value="" style="rounded=0;whiteSpace=wrap;html=1;fillColor=#FFF4FF;strokeColor=none;rotation=0;container=0;" parent="DMmUg4yZT7o5YUSDw8y7-3" vertex="1">
          <mxGeometry width="3" height="3" as="geometry" />
        </mxCell>
        <mxCell id="DMmUg4yZT7o5YUSDw8y7-5" value="" style="rounded=0;whiteSpace=wrap;html=1;fillColor=#FFF4FF;strokeColor=none;rotation=0;container=0;" parent="DMmUg4yZT7o5YUSDw8y7-3" vertex="1">
          <mxGeometry y="5" width="3" height="3" as="geometry" />
        </mxCell>
        <mxCell id="DMmUg4yZT7o5YUSDw8y7-6" value="" style="rounded=0;whiteSpace=wrap;html=1;fillColor=#FFF4FF;strokeColor=none;rotation=0;container=0;" parent="DMmUg4yZT7o5YUSDw8y7-3" vertex="1">
          <mxGeometry y="10" width="3" height="3" as="geometry" />
        </mxCell>
        <mxCell id="DMmUg4yZT7o5YUSDw8y7-7" value="" style="verticalLabelPosition=bottom;verticalAlign=top;html=1;shape=mxgraph.basic.rect;fillColor2=none;strokeWidth=1;size=20;indent=5;strokeColor=none;fillColor=none;rotation=0;" parent="DMmUg4yZT7o5YUSDw8y7-9" vertex="1">
          <mxGeometry width="16" height="16" as="geometry" />
        </mxCell>
      </root>
    </mxGraphModel>
  </diagram>
  <diagram name="Home - Menu" id="McrZRZqOmT0FwNIJVjr4">
    <mxGraphModel dx="779" dy="435" grid="1" gridSize="10" guides="1" tooltips="1" connect="1" arrows="1" fold="1" page="1" pageScale="1" pageWidth="827" pageHeight="1169" math="0" shadow="0">
      <root>
        <mxCell id="EitLpw3k7SMX2NGkqxiS-0" />
        <mxCell id="EitLpw3k7SMX2NGkqxiS-1" parent="EitLpw3k7SMX2NGkqxiS-0" />
        <mxCell id="EitLpw3k7SMX2NGkqxiS-2" value="" style="group" parent="EitLpw3k7SMX2NGkqxiS-1" connectable="0" vertex="1">
          <mxGeometry x="310" y="170" width="200" height="390" as="geometry" />
        </mxCell>
        <mxCell id="EitLpw3k7SMX2NGkqxiS-3" value="" style="group" parent="EitLpw3k7SMX2NGkqxiS-2" connectable="0" vertex="1">
          <mxGeometry x="8" y="50.81999999999999" width="185" height="16.879999999999995" as="geometry" />
        </mxCell>
        <mxCell id="EitLpw3k7SMX2NGkqxiS-4" value="&lt;font color=&quot;#fff4ff&quot;&gt;Login&lt;/font&gt;" style="whiteSpace=wrap;html=1;shadow=0;dashed=0;fontSize=10;align=left;fillColor=#F5BFE9;strokeColor=none;fontColor=#FFFFFF;rotation=0;movable=1;resizable=1;rotatable=1;deletable=1;editable=1;locked=0;connectable=1;container=0;" parent="EitLpw3k7SMX2NGkqxiS-3" vertex="1">
          <mxGeometry x="13" width="172" height="16.88" as="geometry" />
        </mxCell>
        <mxCell id="EitLpw3k7SMX2NGkqxiS-5" value="" style="rounded=0;whiteSpace=wrap;html=1;strokeColor=none;rotation=0;fillColor=#F5BFE9;movable=1;resizable=1;rotatable=1;deletable=1;editable=1;locked=0;connectable=1;container=0;" parent="EitLpw3k7SMX2NGkqxiS-3" vertex="1">
          <mxGeometry width="12.8" height="16.88" as="geometry" />
        </mxCell>
        <mxCell id="EitLpw3k7SMX2NGkqxiS-6" value="" style="html=1;verticalLabelPosition=bottom;align=center;labelBackgroundColor=#ffffff;verticalAlign=top;strokeWidth=1;strokeColor=#FFF4FF;shadow=0;dashed=0;shape=mxgraph.ios7.icons.play;rotation=-180;fillColor=#F5BFE9;movable=1;resizable=1;rotatable=1;deletable=1;editable=1;locked=0;connectable=1;container=0;" parent="EitLpw3k7SMX2NGkqxiS-3" vertex="1">
          <mxGeometry x="3" y="5" width="7" height="7" as="geometry" />
        </mxCell>
        <mxCell id="EitLpw3k7SMX2NGkqxiS-8" value="" style="group;fillColor=default;container=0;" parent="EitLpw3k7SMX2NGkqxiS-2" connectable="0" vertex="1">
          <mxGeometry width="200" height="390" as="geometry" />
        </mxCell>
        <mxCell id="EitLpw3k7SMX2NGkqxiS-9" value="" style="verticalLabelPosition=bottom;verticalAlign=top;html=1;shadow=0;dashed=0;strokeWidth=1;shape=mxgraph.android.phone2;strokeColor=#c0c0c0;" parent="EitLpw3k7SMX2NGkqxiS-2" vertex="1">
          <mxGeometry width="200" height="390" as="geometry" />
        </mxCell>
        <mxCell id="EitLpw3k7SMX2NGkqxiS-10" value="" style="rounded=0;whiteSpace=wrap;html=1;fillColor=#FFF4FF;strokeColor=none;rotation=0;" parent="EitLpw3k7SMX2NGkqxiS-2" vertex="1">
          <mxGeometry x="8" y="35" width="185" height="319" as="geometry" />
        </mxCell>
        <mxCell id="EitLpw3k7SMX2NGkqxiS-11" value="" style="strokeWidth=1;html=1;shadow=0;dashed=0;shape=mxgraph.android.statusBar;align=center;fillColor=#000000;strokeColor=#ffffff;fontColor=#ffffff;fontSize=10;sketch=0;rotation=0;" parent="EitLpw3k7SMX2NGkqxiS-2" vertex="1">
          <mxGeometry x="8" y="35" width="185" height="15.825" as="geometry" />
        </mxCell>
        <mxCell id="EitLpw3k7SMX2NGkqxiS-12" value="" style="group" parent="EitLpw3k7SMX2NGkqxiS-1" connectable="0" vertex="1">
          <mxGeometry x="318" y="220.82" width="185" height="16.879999999999995" as="geometry" />
        </mxCell>
        <mxCell id="EitLpw3k7SMX2NGkqxiS-13" value="&lt;font color=&quot;#fff4ff&quot;&gt;Home&lt;/font&gt;" style="whiteSpace=wrap;html=1;shadow=0;dashed=0;fontSize=10;align=left;fillColor=#F5BFE9;strokeColor=none;fontColor=#FFFFFF;rotation=0;movable=1;resizable=1;rotatable=1;deletable=1;editable=1;locked=0;connectable=1;" parent="EitLpw3k7SMX2NGkqxiS-12" vertex="1">
          <mxGeometry x="13" width="172" height="16.88" as="geometry" />
        </mxCell>
        <UserObject label="" link="data:page/id,BIANiUHFErxnDz7vMMGn" id="EitLpw3k7SMX2NGkqxiS-14">
          <mxCell style="rounded=0;whiteSpace=wrap;html=1;strokeColor=none;rotation=0;fillColor=#F5BFE9;movable=1;resizable=1;rotatable=1;deletable=1;editable=1;locked=0;connectable=1;" parent="EitLpw3k7SMX2NGkqxiS-12" vertex="1">
            <mxGeometry width="12.8" height="16.88" as="geometry" />
          </mxCell>
        </UserObject>
        <mxCell id="EitLpw3k7SMX2NGkqxiS-15" value="" style="html=1;verticalLabelPosition=bottom;align=center;labelBackgroundColor=#ffffff;verticalAlign=top;strokeWidth=1;strokeColor=#FFF4FF;shadow=0;dashed=0;shape=mxgraph.ios7.icons.play;rotation=-180;fillColor=#F5BFE9;movable=1;resizable=1;rotatable=1;deletable=1;editable=1;locked=0;connectable=1;" parent="EitLpw3k7SMX2NGkqxiS-12" vertex="1">
          <mxGeometry x="3.000000000000001" y="5" width="7" height="7" as="geometry" />
        </mxCell>
        <mxCell id="EitLpw3k7SMX2NGkqxiS-16" value="" style="group" parent="EitLpw3k7SMX2NGkqxiS-1" vertex="1" connectable="0">
          <mxGeometry x="325" y="246" width="172" height="35" as="geometry" />
        </mxCell>
        <mxCell id="EitLpw3k7SMX2NGkqxiS-17" value="" style="shape=rect;shadow=0;sketch=0;hachureGap=4;pointerEvents=0;fontFamily=Architects Daughter;fontSource=https%3A%2F%2Ffonts.googleapis.com%2Fcss%3Ffamily%3DArchitects%2BDaughter;fontSize=20;container=0;strokeColor=none;" parent="EitLpw3k7SMX2NGkqxiS-16" vertex="1">
          <mxGeometry width="172" height="35" as="geometry" />
        </mxCell>
        <mxCell id="EitLpw3k7SMX2NGkqxiS-18" value="" style="shape=ellipse;strokeColor=none;fillColor=#F5BFE9;fontSize=8;fontColor=#000000;align=left;spacingTop=1;spacingLeft=2;labelPosition=right;verticalLabelPosition=middle;verticalAlign=middle;sketch=0;hachureGap=4;pointerEvents=0;fontFamily=Verdana;html=1;container=0;" parent="EitLpw3k7SMX2NGkqxiS-16" vertex="1">
          <mxGeometry x="5" y="5" width="10" height="10" as="geometry">
            <mxPoint x="5" y="5" as="offset" />
          </mxGeometry>
        </mxCell>
        <mxCell id="EitLpw3k7SMX2NGkqxiS-19" value="&lt;font color=&quot;#8ebbbf&quot; style=&quot;font-size: 7px;&quot;&gt;11-09-2023 14:45&lt;/font&gt;" style="text;html=1;strokeColor=none;fillColor=none;align=right;verticalAlign=middle;whiteSpace=wrap;rounded=0;" parent="EitLpw3k7SMX2NGkqxiS-16" vertex="1">
          <mxGeometry x="110" y="3" width="60" height="10" as="geometry" />
        </mxCell>
        <mxCell id="EitLpw3k7SMX2NGkqxiS-20" value="&lt;font color=&quot;#bbe7e3&quot; face=&quot;Garamond&quot; style=&quot;font-size: 9px;&quot;&gt;Douglas G. Souza&lt;/font&gt;" style="text;html=1;strokeColor=none;fillColor=none;align=left;verticalAlign=middle;whiteSpace=wrap;rounded=0;rotation=0;" parent="EitLpw3k7SMX2NGkqxiS-16" vertex="1">
          <mxGeometry x="20" y="19" width="147" height="10" as="geometry" />
        </mxCell>
        <mxCell id="EitLpw3k7SMX2NGkqxiS-21" value="&lt;font color=&quot;#8ebbbf&quot; style=&quot;font-size: 10px;&quot;&gt;Obstetra&lt;/font&gt;" style="text;html=1;strokeColor=none;fillColor=none;align=left;verticalAlign=middle;whiteSpace=wrap;rounded=0;" parent="EitLpw3k7SMX2NGkqxiS-16" vertex="1">
          <mxGeometry x="19" y="5" width="60" height="10" as="geometry" />
        </mxCell>
        <UserObject label="" link="data:page/id,qCZ3eRasGXgaiYmvCPpY" id="3sPigeqpaQXQCU234t2t-0">
          <mxCell style="group" parent="EitLpw3k7SMX2NGkqxiS-1" connectable="0" vertex="1">
            <mxGeometry x="487" y="221" width="16" height="16" as="geometry" />
          </mxCell>
        </UserObject>
        <mxCell id="3sPigeqpaQXQCU234t2t-1" value="" style="group" parent="3sPigeqpaQXQCU234t2t-0" connectable="0" vertex="1">
          <mxGeometry x="6" y="1.740000000000009" width="3" height="13" as="geometry" />
        </mxCell>
        <mxCell id="3sPigeqpaQXQCU234t2t-2" value="" style="rounded=0;whiteSpace=wrap;html=1;fillColor=#FFF4FF;strokeColor=none;rotation=0;container=0;" parent="3sPigeqpaQXQCU234t2t-1" vertex="1">
          <mxGeometry width="3" height="3" as="geometry" />
        </mxCell>
        <mxCell id="3sPigeqpaQXQCU234t2t-3" value="" style="rounded=0;whiteSpace=wrap;html=1;fillColor=#FFF4FF;strokeColor=none;rotation=0;container=0;" parent="3sPigeqpaQXQCU234t2t-1" vertex="1">
          <mxGeometry y="5" width="3" height="3" as="geometry" />
        </mxCell>
        <mxCell id="3sPigeqpaQXQCU234t2t-4" value="" style="rounded=0;whiteSpace=wrap;html=1;fillColor=#FFF4FF;strokeColor=none;rotation=0;container=0;" parent="3sPigeqpaQXQCU234t2t-1" vertex="1">
          <mxGeometry y="10" width="3" height="3" as="geometry" />
        </mxCell>
        <mxCell id="3sPigeqpaQXQCU234t2t-5" value="" style="verticalLabelPosition=bottom;verticalAlign=top;html=1;shape=mxgraph.basic.rect;fillColor2=none;strokeWidth=1;size=20;indent=5;strokeColor=none;fillColor=none;rotation=0;" parent="3sPigeqpaQXQCU234t2t-0" vertex="1">
          <mxGeometry width="16" height="16" as="geometry" />
        </mxCell>
        <mxCell id="jppQwPpJt6eunX6T8mom-6" value="" style="group" vertex="1" connectable="0" parent="EitLpw3k7SMX2NGkqxiS-1">
          <mxGeometry x="361" y="239" width="140" height="100" as="geometry" />
        </mxCell>
        <mxCell id="jppQwPpJt6eunX6T8mom-1" value="" style="strokeWidth=1;html=1;shadow=0;dashed=0;shape=mxgraph.android.rrect;rSize=0;strokeColor=#eeeeee;fillColor=#F5BFE9;gradientColor=none;container=0;" vertex="1" parent="jppQwPpJt6eunX6T8mom-6">
          <mxGeometry width="140" height="100" as="geometry" />
        </mxCell>
        <UserObject label="&lt;font color=&quot;#fff4ff&quot;&gt;Perfil&lt;/font&gt;" link="data:page/id,avlN21Lwitfdxyjf4LZ4" id="jppQwPpJt6eunX6T8mom-2">
          <mxCell style="strokeWidth=1;html=1;shadow=0;dashed=0;shape=mxgraph.android.rrect;rSize=0;align=left;spacingLeft=10;fontSize=8;container=0;rotation=0;fillColor=none;strokeColor=none;" vertex="1" parent="jppQwPpJt6eunX6T8mom-6">
            <mxGeometry x="4.430379746835443" y="3.9099999999999966" width="132.91139240506328" height="18.09" as="geometry" />
          </mxCell>
        </UserObject>
        <UserObject label="&lt;font color=&quot;#fff4ff&quot;&gt;Marcar Consulta&lt;/font&gt;" link="data:page/id,ms2PnofPs8WfwoOaWwyV" id="jppQwPpJt6eunX6T8mom-3">
          <mxCell style="strokeWidth=1;html=1;shadow=0;dashed=0;shape=mxgraph.android.rrect;rSize=0;align=left;spacingLeft=10;fontSize=8;container=0;rotation=0;fillColor=none;strokeColor=none;" vertex="1" parent="jppQwPpJt6eunX6T8mom-6">
            <mxGeometry x="4.430379746835443" y="26.92500000000001" width="132.91139240506328" height="19.575" as="geometry" />
          </mxCell>
        </UserObject>
        <UserObject label="&lt;font color=&quot;#fff4ff&quot;&gt;Receitas&lt;/font&gt;" link="data:page/id,hZcOh8IqR3UeU6slZ81t" id="jppQwPpJt6eunX6T8mom-4">
          <mxCell style="strokeWidth=1;html=1;shadow=0;dashed=0;shape=mxgraph.android.rrect;rSize=0;align=left;spacingLeft=10;fontSize=8;container=0;rotation=0;fillColor=none;strokeColor=none;" vertex="1" parent="jppQwPpJt6eunX6T8mom-6">
            <mxGeometry x="4.430379746835443" y="51.92500000000001" width="132.91139240506328" height="19.575" as="geometry" />
          </mxCell>
        </UserObject>
        <UserObject label="&lt;font color=&quot;#fff4ff&quot;&gt;Cartão Gestante&lt;/font&gt;" link="data:page/id,aRUGBqoZUp0ezGutPelb" id="jppQwPpJt6eunX6T8mom-5">
          <mxCell style="strokeWidth=1;html=1;shadow=0;dashed=0;shape=mxgraph.android.rrect;rSize=0;align=left;spacingLeft=10;fontSize=8;container=0;rotation=0;fillColor=none;strokeColor=none;" vertex="1" parent="jppQwPpJt6eunX6T8mom-6">
            <mxGeometry x="4.430379746835443" y="76.92500000000001" width="132.91139240506328" height="19.575" as="geometry" />
          </mxCell>
        </UserObject>
      </root>
    </mxGraphModel>
  </diagram>
  <diagram name="Receitas" id="hZcOh8IqR3UeU6slZ81t">
    <mxGraphModel dx="779" dy="435" grid="1" gridSize="10" guides="1" tooltips="1" connect="1" arrows="1" fold="1" page="1" pageScale="1" pageWidth="827" pageHeight="1169" math="0" shadow="0">
      <root>
        <mxCell id="_QwmBGsHGVogoTtM74mG-0" />
        <mxCell id="_QwmBGsHGVogoTtM74mG-1" parent="_QwmBGsHGVogoTtM74mG-0" />
        <mxCell id="_QwmBGsHGVogoTtM74mG-2" value="" style="group" parent="_QwmBGsHGVogoTtM74mG-1" connectable="0" vertex="1">
          <mxGeometry x="310" y="170" width="200" height="390" as="geometry" />
        </mxCell>
        <mxCell id="_QwmBGsHGVogoTtM74mG-3" value="" style="group" parent="_QwmBGsHGVogoTtM74mG-2" connectable="0" vertex="1">
          <mxGeometry x="8" y="50.81999999999999" width="185" height="16.879999999999995" as="geometry" />
        </mxCell>
        <mxCell id="_QwmBGsHGVogoTtM74mG-4" value="&lt;font color=&quot;#fff4ff&quot;&gt;Login&lt;/font&gt;" style="whiteSpace=wrap;html=1;shadow=0;dashed=0;fontSize=10;align=left;fillColor=#F5BFE9;strokeColor=none;fontColor=#FFFFFF;rotation=0;movable=1;resizable=1;rotatable=1;deletable=1;editable=1;locked=0;connectable=1;container=0;" parent="_QwmBGsHGVogoTtM74mG-3" vertex="1">
          <mxGeometry x="13" width="172" height="16.88" as="geometry" />
        </mxCell>
        <mxCell id="_QwmBGsHGVogoTtM74mG-5" value="" style="rounded=0;whiteSpace=wrap;html=1;strokeColor=none;rotation=0;fillColor=#F5BFE9;movable=1;resizable=1;rotatable=1;deletable=1;editable=1;locked=0;connectable=1;container=0;" parent="_QwmBGsHGVogoTtM74mG-3" vertex="1">
          <mxGeometry width="12.8" height="16.88" as="geometry" />
        </mxCell>
        <mxCell id="_QwmBGsHGVogoTtM74mG-6" value="" style="html=1;verticalLabelPosition=bottom;align=center;labelBackgroundColor=#ffffff;verticalAlign=top;strokeWidth=1;strokeColor=#FFF4FF;shadow=0;dashed=0;shape=mxgraph.ios7.icons.play;rotation=-180;fillColor=#F5BFE9;movable=1;resizable=1;rotatable=1;deletable=1;editable=1;locked=0;connectable=1;container=0;" parent="_QwmBGsHGVogoTtM74mG-3" vertex="1">
          <mxGeometry x="3" y="5" width="7" height="7" as="geometry" />
        </mxCell>
        <mxCell id="_QwmBGsHGVogoTtM74mG-7" value="" style="group;fillColor=default;container=0;" parent="_QwmBGsHGVogoTtM74mG-2" connectable="0" vertex="1">
          <mxGeometry width="200" height="390" as="geometry" />
        </mxCell>
        <mxCell id="_QwmBGsHGVogoTtM74mG-8" value="" style="verticalLabelPosition=bottom;verticalAlign=top;html=1;shadow=0;dashed=0;strokeWidth=1;shape=mxgraph.android.phone2;strokeColor=#c0c0c0;" parent="_QwmBGsHGVogoTtM74mG-2" vertex="1">
          <mxGeometry width="200" height="390" as="geometry" />
        </mxCell>
        <mxCell id="_QwmBGsHGVogoTtM74mG-9" value="" style="rounded=0;whiteSpace=wrap;html=1;fillColor=#FFF4FF;strokeColor=none;rotation=0;" parent="_QwmBGsHGVogoTtM74mG-2" vertex="1">
          <mxGeometry x="8" y="35" width="185" height="319" as="geometry" />
        </mxCell>
        <mxCell id="_QwmBGsHGVogoTtM74mG-10" value="" style="strokeWidth=1;html=1;shadow=0;dashed=0;shape=mxgraph.android.statusBar;align=center;fillColor=#000000;strokeColor=#ffffff;fontColor=#ffffff;fontSize=10;sketch=0;rotation=0;" parent="_QwmBGsHGVogoTtM74mG-2" vertex="1">
          <mxGeometry x="8" y="35" width="185" height="15.825" as="geometry" />
        </mxCell>
        <mxCell id="_QwmBGsHGVogoTtM74mG-11" value="" style="group" parent="_QwmBGsHGVogoTtM74mG-1" connectable="0" vertex="1">
          <mxGeometry x="318" y="220.82" width="185" height="16.879999999999995" as="geometry" />
        </mxCell>
        <mxCell id="_QwmBGsHGVogoTtM74mG-12" value="&lt;font color=&quot;#fff4ff&quot;&gt;Receitas&lt;/font&gt;" style="whiteSpace=wrap;html=1;shadow=0;dashed=0;fontSize=10;align=left;fillColor=#F5BFE9;strokeColor=none;fontColor=#FFFFFF;rotation=0;movable=1;resizable=1;rotatable=1;deletable=1;editable=1;locked=0;connectable=1;" parent="_QwmBGsHGVogoTtM74mG-11" vertex="1">
          <mxGeometry x="13" width="172" height="16.88" as="geometry" />
        </mxCell>
        <UserObject label="" link="data:page/id,qCZ3eRasGXgaiYmvCPpY" id="_QwmBGsHGVogoTtM74mG-13">
          <mxCell style="rounded=0;whiteSpace=wrap;html=1;strokeColor=none;rotation=0;fillColor=#F5BFE9;movable=1;resizable=1;rotatable=1;deletable=1;editable=1;locked=0;connectable=1;" parent="_QwmBGsHGVogoTtM74mG-11" vertex="1">
            <mxGeometry width="12.8" height="16.88" as="geometry" />
          </mxCell>
        </UserObject>
        <mxCell id="_QwmBGsHGVogoTtM74mG-14" value="" style="html=1;verticalLabelPosition=bottom;align=center;labelBackgroundColor=#ffffff;verticalAlign=top;strokeWidth=1;strokeColor=#FFF4FF;shadow=0;dashed=0;shape=mxgraph.ios7.icons.play;rotation=-180;fillColor=#F5BFE9;movable=1;resizable=1;rotatable=1;deletable=1;editable=1;locked=0;connectable=1;" parent="_QwmBGsHGVogoTtM74mG-11" vertex="1">
          <mxGeometry x="3.000000000000001" y="5" width="7" height="7" as="geometry" />
        </mxCell>
        <mxCell id="tq5EQE9vsXVV9QvbFQjY-0" value="" style="group" parent="_QwmBGsHGVogoTtM74mG-1" vertex="1" connectable="0">
          <mxGeometry x="325" y="246" width="172" height="24" as="geometry" />
        </mxCell>
        <mxCell id="_QwmBGsHGVogoTtM74mG-16" value="" style="shape=rect;shadow=0;sketch=0;hachureGap=4;pointerEvents=0;fontFamily=Architects Daughter;fontSource=https%3A%2F%2Ffonts.googleapis.com%2Fcss%3Ffamily%3DArchitects%2BDaughter;fontSize=20;container=0;strokeColor=none;" parent="tq5EQE9vsXVV9QvbFQjY-0" vertex="1">
          <mxGeometry width="172" height="24" as="geometry" />
        </mxCell>
        <mxCell id="_QwmBGsHGVogoTtM74mG-17" value="" style="shape=ellipse;strokeColor=none;fillColor=#BBE7E3;fontSize=8;fontColor=#000000;align=left;spacingTop=1;spacingLeft=2;labelPosition=right;verticalLabelPosition=middle;verticalAlign=middle;sketch=0;hachureGap=4;pointerEvents=0;fontFamily=Verdana;html=1;container=0;" parent="tq5EQE9vsXVV9QvbFQjY-0" vertex="1">
          <mxGeometry x="5" y="7" width="10" height="10" as="geometry">
            <mxPoint x="5" y="5" as="offset" />
          </mxGeometry>
        </mxCell>
        <mxCell id="_QwmBGsHGVogoTtM74mG-18" value="&lt;font color=&quot;#997da4&quot; style=&quot;font-size: 7px;&quot;&gt;11-09-2023 14:45&lt;/font&gt;" style="text;html=1;strokeColor=none;fillColor=none;align=right;verticalAlign=middle;whiteSpace=wrap;rounded=0;" parent="tq5EQE9vsXVV9QvbFQjY-0" vertex="1">
          <mxGeometry x="110" y="6" width="60" height="10" as="geometry" />
        </mxCell>
        <mxCell id="_QwmBGsHGVogoTtM74mG-20" value="&lt;font color=&quot;#997da4&quot; style=&quot;font-size: 10px;&quot;&gt;Obstetra&lt;/font&gt;" style="text;html=1;strokeColor=none;fillColor=none;align=left;verticalAlign=middle;whiteSpace=wrap;rounded=0;" parent="tq5EQE9vsXVV9QvbFQjY-0" vertex="1">
          <mxGeometry x="19" y="7" width="60" height="10" as="geometry" />
        </mxCell>
        <mxCell id="tq5EQE9vsXVV9QvbFQjY-1" value="" style="group" parent="_QwmBGsHGVogoTtM74mG-1" vertex="1" connectable="0">
          <mxGeometry x="325" y="276" width="172" height="24" as="geometry" />
        </mxCell>
        <mxCell id="tq5EQE9vsXVV9QvbFQjY-2" value="" style="shape=rect;shadow=0;sketch=0;hachureGap=4;pointerEvents=0;fontFamily=Architects Daughter;fontSource=https%3A%2F%2Ffonts.googleapis.com%2Fcss%3Ffamily%3DArchitects%2BDaughter;fontSize=20;container=0;strokeColor=none;" parent="tq5EQE9vsXVV9QvbFQjY-1" vertex="1">
          <mxGeometry width="172" height="24" as="geometry" />
        </mxCell>
        <mxCell id="tq5EQE9vsXVV9QvbFQjY-3" value="" style="shape=ellipse;strokeColor=none;fillColor=#BBE7E3;fontSize=8;fontColor=#000000;align=left;spacingTop=1;spacingLeft=2;labelPosition=right;verticalLabelPosition=middle;verticalAlign=middle;sketch=0;hachureGap=4;pointerEvents=0;fontFamily=Verdana;html=1;container=0;" parent="tq5EQE9vsXVV9QvbFQjY-1" vertex="1">
          <mxGeometry x="5" y="7" width="10" height="10" as="geometry">
            <mxPoint x="5" y="5" as="offset" />
          </mxGeometry>
        </mxCell>
        <mxCell id="tq5EQE9vsXVV9QvbFQjY-4" value="&lt;font color=&quot;#997da4&quot; style=&quot;font-size: 7px;&quot;&gt;06-09-2023 14:45&lt;/font&gt;" style="text;html=1;strokeColor=none;fillColor=none;align=right;verticalAlign=middle;whiteSpace=wrap;rounded=0;" parent="tq5EQE9vsXVV9QvbFQjY-1" vertex="1">
          <mxGeometry x="110" y="6" width="60" height="10" as="geometry" />
        </mxCell>
        <mxCell id="tq5EQE9vsXVV9QvbFQjY-5" value="&lt;font color=&quot;#997da4&quot; style=&quot;font-size: 10px;&quot;&gt;Obstetra&lt;/font&gt;" style="text;html=1;strokeColor=none;fillColor=none;align=left;verticalAlign=middle;whiteSpace=wrap;rounded=0;" parent="tq5EQE9vsXVV9QvbFQjY-1" vertex="1">
          <mxGeometry x="19" y="7" width="60" height="10" as="geometry" />
        </mxCell>
        <mxCell id="tq5EQE9vsXVV9QvbFQjY-6" value="" style="group" parent="_QwmBGsHGVogoTtM74mG-1" vertex="1" connectable="0">
          <mxGeometry x="325" y="306" width="172" height="24" as="geometry" />
        </mxCell>
        <mxCell id="tq5EQE9vsXVV9QvbFQjY-7" value="" style="shape=rect;shadow=0;sketch=0;hachureGap=4;pointerEvents=0;fontFamily=Architects Daughter;fontSource=https%3A%2F%2Ffonts.googleapis.com%2Fcss%3Ffamily%3DArchitects%2BDaughter;fontSize=20;container=0;strokeColor=none;" parent="tq5EQE9vsXVV9QvbFQjY-6" vertex="1">
          <mxGeometry width="172" height="24" as="geometry" />
        </mxCell>
        <mxCell id="tq5EQE9vsXVV9QvbFQjY-8" value="" style="shape=ellipse;strokeColor=none;fillColor=#BBE7E3;fontSize=8;fontColor=#000000;align=left;spacingTop=1;spacingLeft=2;labelPosition=right;verticalLabelPosition=middle;verticalAlign=middle;sketch=0;hachureGap=4;pointerEvents=0;fontFamily=Verdana;html=1;container=0;" parent="tq5EQE9vsXVV9QvbFQjY-6" vertex="1">
          <mxGeometry x="5" y="7" width="10" height="10" as="geometry">
            <mxPoint x="5" y="5" as="offset" />
          </mxGeometry>
        </mxCell>
        <mxCell id="tq5EQE9vsXVV9QvbFQjY-9" value="&lt;font color=&quot;#997da4&quot; style=&quot;font-size: 7px;&quot;&gt;04-09-2023 14:45&lt;/font&gt;" style="text;html=1;strokeColor=none;fillColor=none;align=right;verticalAlign=middle;whiteSpace=wrap;rounded=0;" parent="tq5EQE9vsXVV9QvbFQjY-6" vertex="1">
          <mxGeometry x="110" y="6" width="60" height="10" as="geometry" />
        </mxCell>
        <mxCell id="tq5EQE9vsXVV9QvbFQjY-10" value="&lt;font color=&quot;#997da4&quot; style=&quot;font-size: 10px;&quot;&gt;Nutricionista&lt;/font&gt;" style="text;html=1;strokeColor=none;fillColor=none;align=left;verticalAlign=middle;whiteSpace=wrap;rounded=0;" parent="tq5EQE9vsXVV9QvbFQjY-6" vertex="1">
          <mxGeometry x="19" y="7" width="60" height="10" as="geometry" />
        </mxCell>
      </root>
    </mxGraphModel>
  </diagram>
  <diagram name="Cartão Gestante" id="aRUGBqoZUp0ezGutPelb">
    <mxGraphModel dx="455" dy="254" grid="1" gridSize="10" guides="1" tooltips="1" connect="1" arrows="1" fold="1" page="1" pageScale="1" pageWidth="827" pageHeight="1169" math="0" shadow="0">
      <root>
        <mxCell id="vwy2n0qECzkZbz_761Tu-0" />
        <mxCell id="vwy2n0qECzkZbz_761Tu-1" parent="vwy2n0qECzkZbz_761Tu-0" />
        <mxCell id="vwy2n0qECzkZbz_761Tu-2" value="" style="group" parent="vwy2n0qECzkZbz_761Tu-1" connectable="0" vertex="1">
          <mxGeometry x="310" y="170" width="200" height="390" as="geometry" />
        </mxCell>
        <mxCell id="vwy2n0qECzkZbz_761Tu-3" value="" style="group" parent="vwy2n0qECzkZbz_761Tu-2" connectable="0" vertex="1">
          <mxGeometry x="8" y="50.81999999999999" width="185" height="16.879999999999995" as="geometry" />
        </mxCell>
        <mxCell id="vwy2n0qECzkZbz_761Tu-4" value="&lt;font color=&quot;#fff4ff&quot;&gt;Login&lt;/font&gt;" style="whiteSpace=wrap;html=1;shadow=0;dashed=0;fontSize=10;align=left;fillColor=#F5BFE9;strokeColor=none;fontColor=#FFFFFF;rotation=0;movable=1;resizable=1;rotatable=1;deletable=1;editable=1;locked=0;connectable=1;container=0;" parent="vwy2n0qECzkZbz_761Tu-3" vertex="1">
          <mxGeometry x="13" width="172" height="16.88" as="geometry" />
        </mxCell>
        <mxCell id="vwy2n0qECzkZbz_761Tu-5" value="" style="rounded=0;whiteSpace=wrap;html=1;strokeColor=none;rotation=0;fillColor=#F5BFE9;movable=1;resizable=1;rotatable=1;deletable=1;editable=1;locked=0;connectable=1;container=0;" parent="vwy2n0qECzkZbz_761Tu-3" vertex="1">
          <mxGeometry width="12.8" height="16.88" as="geometry" />
        </mxCell>
        <mxCell id="vwy2n0qECzkZbz_761Tu-6" value="" style="html=1;verticalLabelPosition=bottom;align=center;labelBackgroundColor=#ffffff;verticalAlign=top;strokeWidth=1;strokeColor=#FFF4FF;shadow=0;dashed=0;shape=mxgraph.ios7.icons.play;rotation=-180;fillColor=#F5BFE9;movable=1;resizable=1;rotatable=1;deletable=1;editable=1;locked=0;connectable=1;container=0;" parent="vwy2n0qECzkZbz_761Tu-3" vertex="1">
          <mxGeometry x="3" y="5" width="7" height="7" as="geometry" />
        </mxCell>
        <mxCell id="vwy2n0qECzkZbz_761Tu-7" value="" style="group;fillColor=default;container=0;" parent="vwy2n0qECzkZbz_761Tu-2" connectable="0" vertex="1">
          <mxGeometry width="200" height="390" as="geometry" />
        </mxCell>
        <mxCell id="vwy2n0qECzkZbz_761Tu-8" value="" style="verticalLabelPosition=bottom;verticalAlign=top;html=1;shadow=0;dashed=0;strokeWidth=1;shape=mxgraph.android.phone2;strokeColor=#c0c0c0;" parent="vwy2n0qECzkZbz_761Tu-2" vertex="1">
          <mxGeometry width="200" height="390" as="geometry" />
        </mxCell>
        <mxCell id="vwy2n0qECzkZbz_761Tu-9" value="" style="rounded=0;whiteSpace=wrap;html=1;fillColor=#FFF4FF;strokeColor=none;rotation=0;" parent="vwy2n0qECzkZbz_761Tu-2" vertex="1">
          <mxGeometry x="8" y="35" width="185" height="319" as="geometry" />
        </mxCell>
        <mxCell id="vwy2n0qECzkZbz_761Tu-10" value="" style="strokeWidth=1;html=1;shadow=0;dashed=0;shape=mxgraph.android.statusBar;align=center;fillColor=#000000;strokeColor=#ffffff;fontColor=#ffffff;fontSize=10;sketch=0;rotation=0;" parent="vwy2n0qECzkZbz_761Tu-2" vertex="1">
          <mxGeometry x="8" y="35" width="185" height="15.825" as="geometry" />
        </mxCell>
        <mxCell id="k2suNZbCIwNI_-b9fpVB-19" value="" style="html=1;verticalLabelPosition=bottom;labelBackgroundColor=#ffffff;verticalAlign=top;shadow=0;dashed=0;strokeWidth=2;shape=mxgraph.ios7.misc.add;fillColor=#BBE7E3;strokeColor=#ffffff;sketch=0;" vertex="1" parent="vwy2n0qECzkZbz_761Tu-2">
          <mxGeometry x="154" y="310" width="32" height="32" as="geometry" />
        </mxCell>
        <mxCell id="201iMQpi4ieUWt_q4dJn-3" value="" style="group" vertex="1" connectable="0" parent="vwy2n0qECzkZbz_761Tu-2">
          <mxGeometry x="14" y="75" width="172" height="24" as="geometry" />
        </mxCell>
        <mxCell id="k2suNZbCIwNI_-b9fpVB-7" value="" style="shape=rect;shadow=0;sketch=0;hachureGap=4;pointerEvents=0;fontFamily=Architects Daughter;fontSource=https%3A%2F%2Ffonts.googleapis.com%2Fcss%3Ffamily%3DArchitects%2BDaughter;fontSize=20;container=0;strokeColor=none;fillColor=#F5BFE9;" vertex="1" parent="201iMQpi4ieUWt_q4dJn-3">
          <mxGeometry width="172" height="24" as="geometry" />
        </mxCell>
        <mxCell id="k2suNZbCIwNI_-b9fpVB-8" value="" style="shape=ellipse;strokeColor=none;fillColor=#FFF4FF;fontSize=8;fontColor=#000000;align=left;spacingTop=1;spacingLeft=2;labelPosition=right;verticalLabelPosition=middle;verticalAlign=middle;sketch=0;hachureGap=4;pointerEvents=0;fontFamily=Verdana;html=1;container=0;" vertex="1" parent="201iMQpi4ieUWt_q4dJn-3">
          <mxGeometry x="5" y="7" width="10" height="10" as="geometry">
            <mxPoint x="5" y="5" as="offset" />
          </mxGeometry>
        </mxCell>
        <mxCell id="k2suNZbCIwNI_-b9fpVB-10" value="&lt;font color=&quot;#997da4&quot;&gt;11-09-2023 14:45&lt;/font&gt;" style="text;html=1;strokeColor=none;fillColor=none;align=center;verticalAlign=middle;whiteSpace=wrap;rounded=0;rotation=0;container=0;" vertex="1" parent="201iMQpi4ieUWt_q4dJn-3">
          <mxGeometry x="19" y="7" width="133" height="10" as="geometry" />
        </mxCell>
        <mxCell id="201iMQpi4ieUWt_q4dJn-4" value="" style="group" vertex="1" connectable="0" parent="vwy2n0qECzkZbz_761Tu-2">
          <mxGeometry x="14" y="104" width="172" height="24" as="geometry" />
        </mxCell>
        <mxCell id="k2suNZbCIwNI_-b9fpVB-12" value="" style="shape=rect;shadow=0;sketch=0;hachureGap=4;pointerEvents=0;fontFamily=Architects Daughter;fontSource=https%3A%2F%2Ffonts.googleapis.com%2Fcss%3Ffamily%3DArchitects%2BDaughter;fontSize=20;container=0;strokeColor=none;fillColor=#F5BFE9;" vertex="1" parent="201iMQpi4ieUWt_q4dJn-4">
          <mxGeometry width="172" height="24" as="geometry" />
        </mxCell>
        <mxCell id="k2suNZbCIwNI_-b9fpVB-13" value="" style="shape=ellipse;strokeColor=none;fillColor=#FFF4FF;fontSize=8;fontColor=#000000;align=left;spacingTop=1;spacingLeft=2;labelPosition=right;verticalLabelPosition=middle;verticalAlign=middle;sketch=0;hachureGap=4;pointerEvents=0;fontFamily=Verdana;html=1;container=0;" vertex="1" parent="201iMQpi4ieUWt_q4dJn-4">
          <mxGeometry x="5" y="7" width="10" height="10" as="geometry">
            <mxPoint x="5" y="5" as="offset" />
          </mxGeometry>
        </mxCell>
        <mxCell id="k2suNZbCIwNI_-b9fpVB-14" value="&lt;font color=&quot;#997da4&quot;&gt;06-09-2023 14:45&lt;/font&gt;" style="text;html=1;strokeColor=none;fillColor=none;align=center;verticalAlign=middle;whiteSpace=wrap;rounded=0;rotation=0;container=0;" vertex="1" parent="201iMQpi4ieUWt_q4dJn-4">
          <mxGeometry x="19" y="7" width="133" height="10" as="geometry" />
        </mxCell>
        <mxCell id="201iMQpi4ieUWt_q4dJn-5" value="" style="group" vertex="1" connectable="0" parent="vwy2n0qECzkZbz_761Tu-2">
          <mxGeometry x="14" y="133" width="172" height="24" as="geometry" />
        </mxCell>
        <mxCell id="k2suNZbCIwNI_-b9fpVB-16" value="" style="shape=rect;shadow=0;sketch=0;hachureGap=4;pointerEvents=0;fontFamily=Architects Daughter;fontSource=https%3A%2F%2Ffonts.googleapis.com%2Fcss%3Ffamily%3DArchitects%2BDaughter;fontSize=20;container=0;strokeColor=none;fillColor=#F5BFE9;" vertex="1" parent="201iMQpi4ieUWt_q4dJn-5">
          <mxGeometry width="172" height="24" as="geometry" />
        </mxCell>
        <mxCell id="k2suNZbCIwNI_-b9fpVB-17" value="" style="shape=ellipse;strokeColor=none;fillColor=#FFF4FF;fontSize=8;fontColor=#000000;align=left;spacingTop=1;spacingLeft=2;labelPosition=right;verticalLabelPosition=middle;verticalAlign=middle;sketch=0;hachureGap=4;pointerEvents=0;fontFamily=Verdana;html=1;container=0;" vertex="1" parent="201iMQpi4ieUWt_q4dJn-5">
          <mxGeometry x="5" y="7" width="10" height="10" as="geometry">
            <mxPoint x="5" y="5" as="offset" />
          </mxGeometry>
        </mxCell>
        <mxCell id="k2suNZbCIwNI_-b9fpVB-18" value="&lt;font color=&quot;#997da4&quot;&gt;04-09-2023 14:45&lt;/font&gt;" style="text;html=1;strokeColor=none;fillColor=none;align=center;verticalAlign=middle;whiteSpace=wrap;rounded=0;rotation=0;container=0;" vertex="1" parent="201iMQpi4ieUWt_q4dJn-5">
          <mxGeometry x="19" y="7" width="133" height="10" as="geometry" />
        </mxCell>
        <mxCell id="201iMQpi4ieUWt_q4dJn-0" value="" style="html=1;verticalLabelPosition=bottom;labelBackgroundColor=#ffffff;verticalAlign=top;shadow=0;dashed=0;strokeWidth=2;shape=mxgraph.ios7.misc.delete;fillColor=#997DA4;strokeColor=#ffffff;sketch=0;container=0;" vertex="1" parent="201iMQpi4ieUWt_q4dJn-5">
          <mxGeometry x="155" y="7" width="12" height="12" as="geometry" />
        </mxCell>
        <mxCell id="vwy2n0qECzkZbz_761Tu-11" value="" style="group" parent="vwy2n0qECzkZbz_761Tu-1" connectable="0" vertex="1">
          <mxGeometry x="318" y="220.82" width="185" height="16.879999999999995" as="geometry" />
        </mxCell>
        <mxCell id="vwy2n0qECzkZbz_761Tu-12" value="&lt;font color=&quot;#fff4ff&quot;&gt;Uploads Cartão Gestante&lt;/font&gt;" style="whiteSpace=wrap;html=1;shadow=0;dashed=0;fontSize=10;align=left;fillColor=#F5BFE9;strokeColor=none;fontColor=#FFFFFF;rotation=0;movable=1;resizable=1;rotatable=1;deletable=1;editable=1;locked=0;connectable=1;" parent="vwy2n0qECzkZbz_761Tu-11" vertex="1">
          <mxGeometry x="13" width="172" height="16.88" as="geometry" />
        </mxCell>
        <UserObject label="" link="data:page/id,qCZ3eRasGXgaiYmvCPpY" id="vwy2n0qECzkZbz_761Tu-13">
          <mxCell style="rounded=0;whiteSpace=wrap;html=1;strokeColor=none;rotation=0;fillColor=#F5BFE9;movable=1;resizable=1;rotatable=1;deletable=1;editable=1;locked=0;connectable=1;" parent="vwy2n0qECzkZbz_761Tu-11" vertex="1">
            <mxGeometry width="12.8" height="16.88" as="geometry" />
          </mxCell>
        </UserObject>
        <mxCell id="vwy2n0qECzkZbz_761Tu-14" value="" style="html=1;verticalLabelPosition=bottom;align=center;labelBackgroundColor=#ffffff;verticalAlign=top;strokeWidth=1;strokeColor=#FFF4FF;shadow=0;dashed=0;shape=mxgraph.ios7.icons.play;rotation=-180;fillColor=#F5BFE9;movable=1;resizable=1;rotatable=1;deletable=1;editable=1;locked=0;connectable=1;" parent="vwy2n0qECzkZbz_761Tu-11" vertex="1">
          <mxGeometry x="3.000000000000001" y="5" width="7" height="7" as="geometry" />
        </mxCell>
        <mxCell id="201iMQpi4ieUWt_q4dJn-1" value="" style="html=1;verticalLabelPosition=bottom;labelBackgroundColor=#ffffff;verticalAlign=top;shadow=0;dashed=0;strokeWidth=2;shape=mxgraph.ios7.misc.delete;fillColor=#997DA4;strokeColor=#ffffff;sketch=0;container=0;" vertex="1" parent="vwy2n0qECzkZbz_761Tu-1">
          <mxGeometry x="480" y="280" width="12" height="12" as="geometry" />
        </mxCell>
        <mxCell id="201iMQpi4ieUWt_q4dJn-2" value="" style="html=1;verticalLabelPosition=bottom;labelBackgroundColor=#ffffff;verticalAlign=top;shadow=0;dashed=0;strokeWidth=2;shape=mxgraph.ios7.misc.delete;fillColor=#997DA4;strokeColor=#ffffff;sketch=0;container=0;" vertex="1" parent="vwy2n0qECzkZbz_761Tu-1">
          <mxGeometry x="480" y="251" width="12" height="12" as="geometry" />
        </mxCell>
      </root>
    </mxGraphModel>
  </diagram>
  <diagram name="Cadastro Gestante" id="gBK0wMPXVRq-rngcEq0a">
    <mxGraphModel dx="1364" dy="761" grid="1" gridSize="10" guides="1" tooltips="1" connect="1" arrows="1" fold="1" page="1" pageScale="1" pageWidth="827" pageHeight="1169" math="0" shadow="0">
      <root>
        <mxCell id="pXVQLckqXuID-RKGmbUR-0" />
        <mxCell id="pXVQLckqXuID-RKGmbUR-1" parent="pXVQLckqXuID-RKGmbUR-0" />
        <mxCell id="mZrFOo3PlvZqfC5gPvCv-0" value="" style="group" parent="pXVQLckqXuID-RKGmbUR-1" connectable="0" vertex="1">
          <mxGeometry x="310" y="170" width="200" height="390" as="geometry" />
        </mxCell>
        <mxCell id="mZrFOo3PlvZqfC5gPvCv-1" value="" style="group;fillColor=default;container=0;" parent="mZrFOo3PlvZqfC5gPvCv-0" connectable="0" vertex="1">
          <mxGeometry width="200" height="390" as="geometry" />
        </mxCell>
        <mxCell id="mZrFOo3PlvZqfC5gPvCv-2" value="" style="verticalLabelPosition=bottom;verticalAlign=top;html=1;shadow=0;dashed=0;strokeWidth=1;shape=mxgraph.android.phone2;strokeColor=#c0c0c0;" parent="mZrFOo3PlvZqfC5gPvCv-0" vertex="1">
          <mxGeometry width="200" height="390" as="geometry" />
        </mxCell>
        <mxCell id="mZrFOo3PlvZqfC5gPvCv-3" value="" style="rounded=0;whiteSpace=wrap;html=1;fillColor=#FFF4FF;strokeColor=none;rotation=0;" parent="mZrFOo3PlvZqfC5gPvCv-0" vertex="1">
          <mxGeometry x="8" y="35" width="185" height="319" as="geometry" />
        </mxCell>
        <mxCell id="mZrFOo3PlvZqfC5gPvCv-4" value="" style="strokeWidth=1;html=1;shadow=0;dashed=0;shape=mxgraph.android.statusBar;align=center;fillColor=#000000;strokeColor=#ffffff;fontColor=#ffffff;fontSize=10;sketch=0;rotation=0;" parent="mZrFOo3PlvZqfC5gPvCv-0" vertex="1">
          <mxGeometry x="8" y="35" width="185" height="15.825" as="geometry" />
        </mxCell>
        <mxCell id="517T9QkSAvz0Df2jQDOC-8" value="" style="group" parent="mZrFOo3PlvZqfC5gPvCv-0" connectable="0" vertex="1">
          <mxGeometry x="15.600000000000023" y="145" width="168.8" height="36.879999999999995" as="geometry" />
        </mxCell>
        <mxCell id="517T9QkSAvz0Df2jQDOC-9" value="&lt;font color=&quot;#997da4&quot;&gt;a.albaroti@gmail.com&lt;/font&gt;" style="whiteSpace=wrap;html=1;shadow=0;dashed=0;fontSize=10;align=left;fillColor=#FFFFFF;strokeColor=#FFFFFF;fontColor=#4D4D4D;container=0;" parent="517T9QkSAvz0Df2jQDOC-8" vertex="1">
          <mxGeometry y="20" width="168.8" height="16.88" as="geometry" />
        </mxCell>
        <mxCell id="517T9QkSAvz0Df2jQDOC-10" value="&lt;font color=&quot;#f5bfe9&quot; style=&quot;font-size: 9px;&quot;&gt;E-mail&lt;/font&gt;" style="text;fontSize=10;verticalAlign=middle;align=left;spacingTop=2;whiteSpace=wrap;html=1;container=0;" parent="517T9QkSAvz0Df2jQDOC-8" vertex="1">
          <mxGeometry width="54" height="20" as="geometry" />
        </mxCell>
        <mxCell id="Ma0Ht1JH7yIJxYJLh0TA-21" value="" style="group" parent="mZrFOo3PlvZqfC5gPvCv-0" connectable="0" vertex="1">
          <mxGeometry x="15.600000000000023" y="268" width="165" height="12.5" as="geometry" />
        </mxCell>
        <mxCell id="Ma0Ht1JH7yIJxYJLh0TA-8" value="&lt;font style=&quot;border-color: var(--border-color);&quot; color=&quot;#f5bfe9&quot;&gt;Concordo com os &#39;&lt;/font&gt;&lt;font style=&quot;border-color: var(--border-color);&quot; color=&quot;#997da4&quot;&gt;Termos de Aceite&lt;/font&gt;&lt;font style=&quot;border-color: var(--border-color);&quot; color=&quot;#f5bfe9&quot;&gt;&#39;&amp;nbsp;&lt;/font&gt;" style="strokeColor=inherit;fillColor=inherit;gradientColor=inherit;shape=transparent;html=1;align=left;spacingLeft=10;fontSize=8;fontColor=#33b5e5;container=0;" parent="Ma0Ht1JH7yIJxYJLh0TA-21" vertex="1">
          <mxGeometry width="165" height="12.5" as="geometry" />
        </mxCell>
        <mxCell id="Ma0Ht1JH7yIJxYJLh0TA-9" value="" style="strokeColor=inherit;fillColor=inherit;gradientColor=inherit;shape=transparent;" parent="Ma0Ht1JH7yIJxYJLh0TA-21" vertex="1">
          <mxGeometry y="7" as="geometry" />
        </mxCell>
        <mxCell id="Ma0Ht1JH7yIJxYJLh0TA-10" value="" style="strokeColor=#000000;fillColor=#FFF4FF;strokeWidth=1;html=1;shadow=0;dashed=0;shape=mxgraph.android.checkbox;rSize=0;resizable=0;" parent="Ma0Ht1JH7yIJxYJLh0TA-9" vertex="1">
          <mxGeometry x="2.5" y="-2.5" width="5" height="5" as="geometry" />
        </mxCell>
        <mxCell id="UWpVJ6DSeBPotKMpsRbr-0" value="" style="group" parent="pXVQLckqXuID-RKGmbUR-1" connectable="0" vertex="1">
          <mxGeometry x="318" y="220.82" width="185" height="16.879999999999995" as="geometry" />
        </mxCell>
        <mxCell id="UWpVJ6DSeBPotKMpsRbr-1" value="&lt;font color=&quot;#fff4ff&quot;&gt;Cadastro&lt;br&gt;&lt;/font&gt;" style="whiteSpace=wrap;html=1;shadow=0;dashed=0;fontSize=10;align=left;fillColor=#F5BFE9;strokeColor=none;fontColor=#FFFFFF;rotation=0;movable=1;resizable=1;rotatable=1;deletable=1;editable=1;locked=0;connectable=1;" parent="UWpVJ6DSeBPotKMpsRbr-0" vertex="1">
          <mxGeometry x="13" width="172" height="16.88" as="geometry" />
        </mxCell>
        <UserObject label="" link="data:page/id,BIANiUHFErxnDz7vMMGn" id="UWpVJ6DSeBPotKMpsRbr-2">
          <mxCell style="rounded=0;whiteSpace=wrap;html=1;strokeColor=none;rotation=0;fillColor=#F5BFE9;movable=1;resizable=1;rotatable=1;deletable=1;editable=1;locked=0;connectable=1;" parent="UWpVJ6DSeBPotKMpsRbr-0" vertex="1">
            <mxGeometry width="12.8" height="16.88" as="geometry" />
          </mxCell>
        </UserObject>
        <mxCell id="UWpVJ6DSeBPotKMpsRbr-3" value="" style="html=1;verticalLabelPosition=bottom;align=center;labelBackgroundColor=#ffffff;verticalAlign=top;strokeWidth=1;strokeColor=#FFF4FF;shadow=0;dashed=0;shape=mxgraph.ios7.icons.play;rotation=-180;fillColor=#F5BFE9;movable=1;resizable=1;rotatable=1;deletable=1;editable=1;locked=0;connectable=1;" parent="UWpVJ6DSeBPotKMpsRbr-0" vertex="1">
          <mxGeometry x="3.000000000000001" y="5" width="7" height="7" as="geometry" />
        </mxCell>
        <UserObject label="&lt;font color=&quot;#fff4ff&quot;&gt;Próximo&lt;/font&gt;" link="data:page/id,0qQmlJQze1P0YYUmRzM5" id="517T9QkSAvz0Df2jQDOC-1">
          <mxCell style="rounded=1;html=1;shadow=0;dashed=0;whiteSpace=wrap;fontSize=10;fillColor=#F5BFE9;align=center;strokeColor=none;fontColor=#333333;container=0;" parent="pXVQLckqXuID-RKGmbUR-1" vertex="1">
            <mxGeometry x="357" y="459" width="105.5" height="16.88" as="geometry" />
          </mxCell>
        </UserObject>
        <mxCell id="517T9QkSAvz0Df2jQDOC-5" value="" style="group" parent="pXVQLckqXuID-RKGmbUR-1" connectable="0" vertex="1">
          <mxGeometry x="326" y="353" width="168.8" height="36.879999999999995" as="geometry" />
        </mxCell>
        <mxCell id="517T9QkSAvz0Df2jQDOC-6" value="&lt;font color=&quot;#997da4&quot;&gt;*********&lt;/font&gt;" style="whiteSpace=wrap;html=1;shadow=0;dashed=0;fontSize=10;align=left;fillColor=#FFFFFF;strokeColor=#FFFFFF;fontColor=#4D4D4D;container=0;" parent="517T9QkSAvz0Df2jQDOC-5" vertex="1">
          <mxGeometry y="20" width="168.8" height="16.88" as="geometry" />
        </mxCell>
        <mxCell id="517T9QkSAvz0Df2jQDOC-7" value="&lt;font color=&quot;#f5bfe9&quot; style=&quot;font-size: 9px;&quot;&gt;Senha&lt;/font&gt;" style="text;fontSize=10;verticalAlign=middle;align=left;spacingTop=2;whiteSpace=wrap;html=1;container=0;" parent="517T9QkSAvz0Df2jQDOC-5" vertex="1">
          <mxGeometry width="54" height="20" as="geometry" />
        </mxCell>
        <mxCell id="517T9QkSAvz0Df2jQDOC-14" value="" style="group" parent="pXVQLckqXuID-RKGmbUR-1" connectable="0" vertex="1">
          <mxGeometry x="325.6" y="390" width="168.8" height="36.879999999999995" as="geometry" />
        </mxCell>
        <mxCell id="517T9QkSAvz0Df2jQDOC-15" value="&lt;font color=&quot;#997da4&quot;&gt;*********&lt;/font&gt;" style="whiteSpace=wrap;html=1;shadow=0;dashed=0;fontSize=10;align=left;fillColor=#FFFFFF;strokeColor=#FFFFFF;fontColor=#4D4D4D;container=0;" parent="517T9QkSAvz0Df2jQDOC-14" vertex="1">
          <mxGeometry y="20" width="168.8" height="16.88" as="geometry" />
        </mxCell>
        <mxCell id="517T9QkSAvz0Df2jQDOC-16" value="&lt;font color=&quot;#f5bfe9&quot; style=&quot;font-size: 9px;&quot;&gt;Confirma Senha&lt;/font&gt;" style="text;fontSize=10;verticalAlign=middle;align=left;spacingTop=2;whiteSpace=wrap;html=1;container=0;" parent="517T9QkSAvz0Df2jQDOC-14" vertex="1">
          <mxGeometry width="80" height="20" as="geometry" />
        </mxCell>
        <mxCell id="517T9QkSAvz0Df2jQDOC-17" value="" style="group" parent="pXVQLckqXuID-RKGmbUR-1" connectable="0" vertex="1">
          <mxGeometry x="325.6" y="278" width="168.8" height="36.879999999999995" as="geometry" />
        </mxCell>
        <mxCell id="517T9QkSAvz0Df2jQDOC-18" value="&lt;font color=&quot;#997da4&quot;&gt;Andréia Albaroti G. de Souza&lt;/font&gt;" style="whiteSpace=wrap;html=1;shadow=0;dashed=0;fontSize=10;align=left;fillColor=#FFFFFF;strokeColor=#FFFFFF;fontColor=#4D4D4D;container=0;" parent="517T9QkSAvz0Df2jQDOC-17" vertex="1">
          <mxGeometry y="20" width="168.8" height="16.88" as="geometry" />
        </mxCell>
        <mxCell id="517T9QkSAvz0Df2jQDOC-19" value="&lt;font color=&quot;#f5bfe9&quot; style=&quot;font-size: 9px;&quot;&gt;Nome&lt;/font&gt;" style="text;fontSize=10;verticalAlign=middle;align=left;spacingTop=2;whiteSpace=wrap;html=1;container=0;" parent="517T9QkSAvz0Df2jQDOC-17" vertex="1">
          <mxGeometry width="54" height="20" as="geometry" />
        </mxCell>
      </root>
    </mxGraphModel>
  </diagram>
  <diagram name="Upload Cartão Gestante" id="T5ECR4KRVC7s3Q8V3kp6">
    <mxGraphModel dx="455" dy="254" grid="1" gridSize="10" guides="1" tooltips="1" connect="1" arrows="1" fold="1" page="1" pageScale="1" pageWidth="827" pageHeight="1169" math="0" shadow="0">
      <root>
        <mxCell id="WLTL8aK0UnS_80Q_v0Cl-0" />
        <mxCell id="WLTL8aK0UnS_80Q_v0Cl-1" parent="WLTL8aK0UnS_80Q_v0Cl-0" />
        <mxCell id="WLTL8aK0UnS_80Q_v0Cl-2" value="" style="group" parent="WLTL8aK0UnS_80Q_v0Cl-1" connectable="0" vertex="1">
          <mxGeometry x="310" y="170" width="200" height="390" as="geometry" />
        </mxCell>
        <mxCell id="WLTL8aK0UnS_80Q_v0Cl-3" value="" style="group;fillColor=default;container=0;" parent="WLTL8aK0UnS_80Q_v0Cl-2" connectable="0" vertex="1">
          <mxGeometry width="200" height="390" as="geometry" />
        </mxCell>
        <mxCell id="WLTL8aK0UnS_80Q_v0Cl-4" value="" style="verticalLabelPosition=bottom;verticalAlign=top;html=1;shadow=0;dashed=0;strokeWidth=1;shape=mxgraph.android.phone2;strokeColor=#c0c0c0;" parent="WLTL8aK0UnS_80Q_v0Cl-2" vertex="1">
          <mxGeometry width="200" height="390" as="geometry" />
        </mxCell>
        <mxCell id="WLTL8aK0UnS_80Q_v0Cl-5" value="" style="rounded=0;whiteSpace=wrap;html=1;fillColor=#FFF4FF;strokeColor=none;rotation=0;" parent="WLTL8aK0UnS_80Q_v0Cl-2" vertex="1">
          <mxGeometry x="8" y="35" width="185" height="319" as="geometry" />
        </mxCell>
        <mxCell id="WLTL8aK0UnS_80Q_v0Cl-6" value="" style="strokeWidth=1;html=1;shadow=0;dashed=0;shape=mxgraph.android.statusBar;align=center;fillColor=#000000;strokeColor=#ffffff;fontColor=#ffffff;fontSize=10;sketch=0;rotation=0;" parent="WLTL8aK0UnS_80Q_v0Cl-2" vertex="1">
          <mxGeometry x="8" y="35" width="185" height="15.825" as="geometry" />
        </mxCell>
        <mxCell id="WLTL8aK0UnS_80Q_v0Cl-7" value="" style="group" parent="WLTL8aK0UnS_80Q_v0Cl-2" connectable="0" vertex="1">
          <mxGeometry x="15.600000000000023" y="145" width="168.8" height="36.879999999999995" as="geometry" />
        </mxCell>
        <mxCell id="WLTL8aK0UnS_80Q_v0Cl-8" value="&lt;font color=&quot;#997da4&quot;&gt;a.albaroti@gmail.com&lt;/font&gt;" style="whiteSpace=wrap;html=1;shadow=0;dashed=0;fontSize=10;align=left;fillColor=#FFFFFF;strokeColor=#FFFFFF;fontColor=#4D4D4D;container=0;" parent="WLTL8aK0UnS_80Q_v0Cl-7" vertex="1">
          <mxGeometry y="20" width="168.8" height="16.88" as="geometry" />
        </mxCell>
        <mxCell id="WLTL8aK0UnS_80Q_v0Cl-9" value="&lt;font color=&quot;#f5bfe9&quot; style=&quot;font-size: 9px;&quot;&gt;E-mail&lt;/font&gt;" style="text;fontSize=10;verticalAlign=middle;align=left;spacingTop=2;whiteSpace=wrap;html=1;container=0;" parent="WLTL8aK0UnS_80Q_v0Cl-7" vertex="1">
          <mxGeometry width="54" height="20" as="geometry" />
        </mxCell>
        <mxCell id="WLTL8aK0UnS_80Q_v0Cl-14" value="" style="group" parent="WLTL8aK0UnS_80Q_v0Cl-1" connectable="0" vertex="1">
          <mxGeometry x="318" y="220.82" width="185" height="16.879999999999995" as="geometry" />
        </mxCell>
        <mxCell id="WLTL8aK0UnS_80Q_v0Cl-15" value="&lt;font color=&quot;#fff4ff&quot;&gt;Cartão Gestante&lt;br&gt;&lt;/font&gt;" style="whiteSpace=wrap;html=1;shadow=0;dashed=0;fontSize=10;align=left;fillColor=#F5BFE9;strokeColor=none;fontColor=#FFFFFF;rotation=0;movable=1;resizable=1;rotatable=1;deletable=1;editable=1;locked=0;connectable=1;" parent="WLTL8aK0UnS_80Q_v0Cl-14" vertex="1">
          <mxGeometry x="13" width="172" height="16.88" as="geometry" />
        </mxCell>
        <UserObject label="" link="data:page/id,BIANiUHFErxnDz7vMMGn" id="WLTL8aK0UnS_80Q_v0Cl-16">
          <mxCell style="rounded=0;whiteSpace=wrap;html=1;strokeColor=none;rotation=0;fillColor=#F5BFE9;movable=1;resizable=1;rotatable=1;deletable=1;editable=1;locked=0;connectable=1;" parent="WLTL8aK0UnS_80Q_v0Cl-14" vertex="1">
            <mxGeometry width="12.8" height="16.88" as="geometry" />
          </mxCell>
        </UserObject>
        <mxCell id="WLTL8aK0UnS_80Q_v0Cl-17" value="" style="html=1;verticalLabelPosition=bottom;align=center;labelBackgroundColor=#ffffff;verticalAlign=top;strokeWidth=1;strokeColor=#FFF4FF;shadow=0;dashed=0;shape=mxgraph.ios7.icons.play;rotation=-180;fillColor=#F5BFE9;movable=1;resizable=1;rotatable=1;deletable=1;editable=1;locked=0;connectable=1;" parent="WLTL8aK0UnS_80Q_v0Cl-14" vertex="1">
          <mxGeometry x="3.000000000000001" y="5" width="7" height="7" as="geometry" />
        </mxCell>
        <UserObject label="&lt;font color=&quot;#fff4ff&quot;&gt;Enviar&lt;/font&gt;" link="data:page/id,aRUGBqoZUp0ezGutPelb" id="WLTL8aK0UnS_80Q_v0Cl-18">
          <mxCell style="rounded=1;html=1;shadow=0;dashed=0;whiteSpace=wrap;fontSize=10;fillColor=#F5BFE9;align=center;strokeColor=none;fontColor=#333333;container=0;" parent="WLTL8aK0UnS_80Q_v0Cl-1" vertex="1">
            <mxGeometry x="357" y="459" width="105.5" height="16.88" as="geometry" />
          </mxCell>
        </UserObject>
        <mxCell id="WLTL8aK0UnS_80Q_v0Cl-19" value="" style="group" parent="WLTL8aK0UnS_80Q_v0Cl-1" connectable="0" vertex="1">
          <mxGeometry x="326" y="353" width="234" height="38" as="geometry" />
        </mxCell>
        <mxCell id="WLTL8aK0UnS_80Q_v0Cl-20" value="&lt;font color=&quot;#997da4&quot;&gt;*********&lt;/font&gt;" style="whiteSpace=wrap;html=1;shadow=0;dashed=0;fontSize=10;align=left;fillColor=#FFFFFF;strokeColor=#FFFFFF;fontColor=#4D4D4D;container=0;" parent="WLTL8aK0UnS_80Q_v0Cl-19" vertex="1">
          <mxGeometry y="20" width="168.8" height="16.88" as="geometry" />
        </mxCell>
        <mxCell id="WLTL8aK0UnS_80Q_v0Cl-21" value="&lt;font color=&quot;#f5bfe9&quot; style=&quot;font-size: 9px;&quot;&gt;Senha&lt;/font&gt;" style="text;fontSize=10;verticalAlign=middle;align=left;spacingTop=2;whiteSpace=wrap;html=1;container=0;" parent="WLTL8aK0UnS_80Q_v0Cl-19" vertex="1">
          <mxGeometry width="54" height="20" as="geometry" />
        </mxCell>
        <mxCell id="WLTL8aK0UnS_80Q_v0Cl-22" value="" style="group" parent="WLTL8aK0UnS_80Q_v0Cl-1" connectable="0" vertex="1">
          <mxGeometry x="325.6" y="390" width="168.8" height="36.879999999999995" as="geometry" />
        </mxCell>
        <mxCell id="WLTL8aK0UnS_80Q_v0Cl-23" value="&lt;font color=&quot;#997da4&quot;&gt;*********&lt;/font&gt;" style="whiteSpace=wrap;html=1;shadow=0;dashed=0;fontSize=10;align=left;fillColor=#FFFFFF;strokeColor=#FFFFFF;fontColor=#4D4D4D;container=0;" parent="WLTL8aK0UnS_80Q_v0Cl-22" vertex="1">
          <mxGeometry y="20" width="168.8" height="16.88" as="geometry" />
        </mxCell>
        <mxCell id="WLTL8aK0UnS_80Q_v0Cl-24" value="&lt;font color=&quot;#f5bfe9&quot; style=&quot;font-size: 9px;&quot;&gt;Confirma Senha&lt;/font&gt;" style="text;fontSize=10;verticalAlign=middle;align=left;spacingTop=2;whiteSpace=wrap;html=1;container=0;" parent="WLTL8aK0UnS_80Q_v0Cl-22" vertex="1">
          <mxGeometry width="80" height="20" as="geometry" />
        </mxCell>
        <mxCell id="WLTL8aK0UnS_80Q_v0Cl-25" value="" style="group" parent="WLTL8aK0UnS_80Q_v0Cl-1" connectable="0" vertex="1">
          <mxGeometry x="325.6" y="278" width="168.8" height="36.879999999999995" as="geometry" />
        </mxCell>
        <mxCell id="WLTL8aK0UnS_80Q_v0Cl-26" value="&lt;font color=&quot;#997da4&quot;&gt;Andréia Albaroti G. de Souza&lt;/font&gt;" style="whiteSpace=wrap;html=1;shadow=0;dashed=0;fontSize=10;align=left;fillColor=#FFFFFF;strokeColor=#FFFFFF;fontColor=#4D4D4D;container=0;" parent="WLTL8aK0UnS_80Q_v0Cl-25" vertex="1">
          <mxGeometry y="20" width="168.8" height="16.88" as="geometry" />
        </mxCell>
        <mxCell id="WLTL8aK0UnS_80Q_v0Cl-27" value="&lt;font color=&quot;#f5bfe9&quot; style=&quot;font-size: 9px;&quot;&gt;Nome&lt;/font&gt;" style="text;fontSize=10;verticalAlign=middle;align=left;spacingTop=2;whiteSpace=wrap;html=1;container=0;" parent="WLTL8aK0UnS_80Q_v0Cl-25" vertex="1">
          <mxGeometry width="54" height="20" as="geometry" />
        </mxCell>
        <mxCell id="sRcxg2ssY0bw8S_B97NV-1" value="" style="rounded=1;whiteSpace=wrap;html=1;rotation=0;strokeColor=none;fillColor=#f8cecc;" vertex="1" parent="WLTL8aK0UnS_80Q_v0Cl-1">
          <mxGeometry x="570" y="363" width="120" height="18" as="geometry" />
        </mxCell>
      </root>
    </mxGraphModel>
  </diagram>
  <diagram id="0qQmlJQze1P0YYUmRzM5" name="Planos">
    <mxGraphModel dx="1364" dy="761" grid="1" gridSize="10" guides="1" tooltips="1" connect="1" arrows="1" fold="1" page="1" pageScale="1" pageWidth="827" pageHeight="1169" math="0" shadow="0">
      <root>
        <mxCell id="0" />
        <mxCell id="1" parent="0" />
        <mxCell id="S6Jj1Cv9jw8gvg_mzGRj-1" value="" style="verticalLabelPosition=bottom;verticalAlign=top;html=1;shadow=0;dashed=0;strokeWidth=1;shape=mxgraph.android.phone2;strokeColor=#c0c0c0;" parent="1" vertex="1">
          <mxGeometry x="310" y="170" width="200" height="390" as="geometry" />
        </mxCell>
        <mxCell id="S6Jj1Cv9jw8gvg_mzGRj-2" value="" style="rounded=0;whiteSpace=wrap;html=1;fillColor=#FFF4FF;strokeColor=none;rotation=0;" parent="1" vertex="1">
          <mxGeometry x="318" y="205" width="185" height="319" as="geometry" />
        </mxCell>
        <mxCell id="S6Jj1Cv9jw8gvg_mzGRj-3" value="" style="strokeWidth=1;html=1;shadow=0;dashed=0;shape=mxgraph.android.statusBar;align=center;fillColor=#000000;strokeColor=#ffffff;fontColor=#ffffff;fontSize=10;sketch=0;rotation=0;" parent="1" vertex="1">
          <mxGeometry x="318" y="205" width="185" height="15.825" as="geometry" />
        </mxCell>
        <mxCell id="S6Jj1Cv9jw8gvg_mzGRj-4" value="" style="group" parent="1" connectable="0" vertex="1">
          <mxGeometry x="318" y="220.82" width="185" height="16.879999999999995" as="geometry" />
        </mxCell>
        <mxCell id="S6Jj1Cv9jw8gvg_mzGRj-5" value="&lt;font color=&quot;#fff4ff&quot;&gt;Planos&lt;/font&gt;" style="whiteSpace=wrap;html=1;shadow=0;dashed=0;fontSize=10;align=left;fillColor=#F5BFE9;strokeColor=none;fontColor=#FFFFFF;rotation=0;movable=1;resizable=1;rotatable=1;deletable=1;editable=1;locked=0;connectable=1;" parent="S6Jj1Cv9jw8gvg_mzGRj-4" vertex="1">
          <mxGeometry x="13" width="172" height="16.88" as="geometry" />
        </mxCell>
        <UserObject label="" link="data:page/id,gBK0wMPXVRq-rngcEq0a" id="S6Jj1Cv9jw8gvg_mzGRj-6">
          <mxCell style="rounded=0;whiteSpace=wrap;html=1;strokeColor=none;rotation=0;fillColor=#F5BFE9;movable=1;resizable=1;rotatable=1;deletable=1;editable=1;locked=0;connectable=1;" parent="S6Jj1Cv9jw8gvg_mzGRj-4" vertex="1">
            <mxGeometry width="12.8" height="16.88" as="geometry" />
          </mxCell>
        </UserObject>
        <mxCell id="S6Jj1Cv9jw8gvg_mzGRj-7" value="" style="html=1;verticalLabelPosition=bottom;align=center;labelBackgroundColor=#ffffff;verticalAlign=top;strokeWidth=1;strokeColor=#FFF4FF;shadow=0;dashed=0;shape=mxgraph.ios7.icons.play;rotation=-180;fillColor=#F5BFE9;movable=1;resizable=1;rotatable=1;deletable=1;editable=1;locked=0;connectable=1;" parent="S6Jj1Cv9jw8gvg_mzGRj-4" vertex="1">
          <mxGeometry x="3.000000000000001" y="5" width="7" height="7" as="geometry" />
        </mxCell>
        <mxCell id="zQF7bHKAKw_9aXjaFuld-11" value="" style="group" parent="1" vertex="1" connectable="0">
          <mxGeometry x="328.5" y="370" width="163.5" height="100" as="geometry" />
        </mxCell>
        <mxCell id="zQF7bHKAKw_9aXjaFuld-9" value="&lt;h1 style=&quot;text-align: justify; font-size: 14px;&quot;&gt;&lt;font color=&quot;#997da4&quot; style=&quot;font-size: 14px;&quot;&gt;Berço Americano&lt;br&gt;&lt;/font&gt;&lt;/h1&gt;&lt;p style=&quot;text-align: justify;&quot;&gt;&lt;font color=&quot;#f5bfe9&quot; style=&quot;font-size: 9px;&quot;&gt;Lorem ipsum dolor sit amet, consectetur adipisicing elit, sed do eiusmod tempor incididunt ut labore et dolore magna aliqua.&lt;/font&gt;&lt;/p&gt;" style="text;html=1;strokeColor=none;fillColor=none;spacing=5;spacingTop=-20;whiteSpace=wrap;overflow=hidden;rounded=0;" parent="zQF7bHKAKw_9aXjaFuld-11" vertex="1">
          <mxGeometry x="10.5" width="153" height="100" as="geometry" />
        </mxCell>
        <mxCell id="WrNPaqO0KklrU-_23l04-13" value="" style="strokeColor=#F5BFE9;fillColor=inherit;gradientColor=inherit;shape=ellipse;resizable=1;html=1;sketch=0;container=0;movable=1;rotatable=1;deletable=1;editable=1;locked=0;connectable=1;" parent="zQF7bHKAKw_9aXjaFuld-11" vertex="1">
          <mxGeometry y="4" width="5" height="5" as="geometry" />
        </mxCell>
        <mxCell id="zQF7bHKAKw_9aXjaFuld-13" value="" style="group" parent="1" vertex="1" connectable="0">
          <mxGeometry x="328.5" y="270" width="163.5" height="100" as="geometry" />
        </mxCell>
        <mxCell id="zQF7bHKAKw_9aXjaFuld-14" value="&lt;h1 style=&quot;text-align: justify; font-size: 14px;&quot;&gt;&lt;font style=&quot;font-size: 14px;&quot;&gt;&lt;font color=&quot;#997da4&quot;&gt;Moisés&lt;/font&gt;&lt;br&gt;&lt;/font&gt;&lt;/h1&gt;&lt;p style=&quot;text-align: justify;&quot;&gt;&lt;font color=&quot;#f5bfe9&quot; style=&quot;font-size: 9px;&quot;&gt;Lorem ipsum dolor sit amet, consectetur adipisicing elit, sed do eiusmod tempor incididunt ut labore et dolore magna aliqua.&lt;/font&gt;&lt;/p&gt;" style="text;html=1;strokeColor=none;fillColor=none;spacing=5;spacingTop=-20;whiteSpace=wrap;overflow=hidden;rounded=0;" parent="zQF7bHKAKw_9aXjaFuld-13" vertex="1">
          <mxGeometry x="10.5" width="153" height="100" as="geometry" />
        </mxCell>
        <mxCell id="zQF7bHKAKw_9aXjaFuld-15" value="" style="strokeColor=#F5BFE9;fillColor=#997DA4;shape=ellipse;resizable=1;html=1;sketch=0;container=0;movable=1;rotatable=1;deletable=1;editable=1;locked=0;connectable=1;" parent="zQF7bHKAKw_9aXjaFuld-13" vertex="1">
          <mxGeometry y="4" width="5" height="5" as="geometry" />
        </mxCell>
        <UserObject label="&lt;font color=&quot;#fff4ff&quot;&gt;Próximo&lt;/font&gt;" link="data:page/id,eVsXpjnWgH_2Q2XUKMek" id="pwjxH-tec_P4yBOewIFn-1">
          <mxCell style="rounded=1;html=1;shadow=0;dashed=0;whiteSpace=wrap;fontSize=10;fillColor=#F5BFE9;align=center;strokeColor=none;fontColor=#333333;container=0;" parent="1" vertex="1">
            <mxGeometry x="357" y="472" width="105.5" height="16.88" as="geometry" />
          </mxCell>
        </UserObject>
      </root>
    </mxGraphModel>
  </diagram>
  <diagram id="eVsXpjnWgH_2Q2XUKMek" name="Cartão">
    <mxGraphModel grid="1" page="1" gridSize="10" guides="1" tooltips="1" connect="1" arrows="1" fold="1" pageScale="1" pageWidth="827" pageHeight="1169" math="0" shadow="0">
      <root>
        <mxCell id="0" />
        <mxCell id="1" parent="0" />
        <mxCell id="PlPO3xhmx97cRh5SQdhA-1" value="" style="group;fontFamily=Comic Sans MS;" connectable="0" vertex="1" parent="1">
          <mxGeometry x="310" y="171" width="200" height="390" as="geometry" />
        </mxCell>
        <mxCell id="PlPO3xhmx97cRh5SQdhA-2" value="" style="group;fillColor=default;container=0;" connectable="0" vertex="1" parent="PlPO3xhmx97cRh5SQdhA-1">
          <mxGeometry width="200" height="390" as="geometry" />
        </mxCell>
        <mxCell id="PlPO3xhmx97cRh5SQdhA-3" value="" style="verticalLabelPosition=bottom;verticalAlign=top;html=1;shadow=0;dashed=0;strokeWidth=1;shape=mxgraph.android.phone2;strokeColor=#c0c0c0;" vertex="1" parent="PlPO3xhmx97cRh5SQdhA-1">
          <mxGeometry width="200" height="390" as="geometry" />
        </mxCell>
        <mxCell id="PlPO3xhmx97cRh5SQdhA-4" value="" style="rounded=0;whiteSpace=wrap;html=1;fillColor=#FFF4FF;strokeColor=none;rotation=0;" vertex="1" parent="PlPO3xhmx97cRh5SQdhA-1">
          <mxGeometry x="8" y="35" width="185" height="319" as="geometry" />
        </mxCell>
        <mxCell id="PlPO3xhmx97cRh5SQdhA-5" value="" style="strokeWidth=1;html=1;shadow=0;dashed=0;shape=mxgraph.android.statusBar;align=center;fillColor=#000000;strokeColor=#ffffff;fontColor=#ffffff;fontSize=10;sketch=0;rotation=0;" vertex="1" parent="PlPO3xhmx97cRh5SQdhA-1">
          <mxGeometry x="8" y="35" width="185" height="15.825" as="geometry" />
        </mxCell>
        <mxCell id="-HVrJ6qP97m1v02O3H50-1" value="" style="group" connectable="0" vertex="1" parent="1">
          <mxGeometry x="318" y="220.82" width="185" height="16.879999999999995" as="geometry" />
        </mxCell>
        <mxCell id="-HVrJ6qP97m1v02O3H50-2" value="&lt;font color=&quot;#fff4ff&quot;&gt;Cartão de Crédito&lt;/font&gt;" style="whiteSpace=wrap;html=1;shadow=0;dashed=0;fontSize=10;align=left;fillColor=#F5BFE9;strokeColor=none;fontColor=#FFFFFF;rotation=0;movable=1;resizable=1;rotatable=1;deletable=1;editable=1;locked=0;connectable=1;" vertex="1" parent="-HVrJ6qP97m1v02O3H50-1">
          <mxGeometry x="13" width="172" height="16.88" as="geometry" />
        </mxCell>
        <UserObject label="" link="data:page/id,0qQmlJQze1P0YYUmRzM5" id="-HVrJ6qP97m1v02O3H50-3">
          <mxCell style="rounded=0;whiteSpace=wrap;html=1;strokeColor=none;rotation=0;fillColor=#F5BFE9;movable=1;resizable=1;rotatable=1;deletable=1;editable=1;locked=0;connectable=1;" vertex="1" parent="-HVrJ6qP97m1v02O3H50-1">
            <mxGeometry width="12.8" height="16.88" as="geometry" />
          </mxCell>
        </UserObject>
        <mxCell id="-HVrJ6qP97m1v02O3H50-4" value="" style="html=1;verticalLabelPosition=bottom;align=center;labelBackgroundColor=#ffffff;verticalAlign=top;strokeWidth=1;strokeColor=#FFF4FF;shadow=0;dashed=0;shape=mxgraph.ios7.icons.play;rotation=-180;fillColor=#F5BFE9;movable=1;resizable=1;rotatable=1;deletable=1;editable=1;locked=0;connectable=1;" vertex="1" parent="-HVrJ6qP97m1v02O3H50-1">
          <mxGeometry x="3.000000000000001" y="5" width="7" height="7" as="geometry" />
        </mxCell>
        <mxCell id="hJn6VOcHcaZgcwKhEHTm-1" value="" style="group" connectable="0" vertex="1" parent="1">
          <mxGeometry x="325.6" y="336" width="168.8" height="36.879999999999995" as="geometry" />
        </mxCell>
        <mxCell id="hJn6VOcHcaZgcwKhEHTm-2" value="&lt;font color=&quot;#997da4&quot;&gt;330.888.249-40&lt;/font&gt;" style="whiteSpace=wrap;html=1;shadow=0;dashed=0;fontSize=10;align=left;fillColor=#FFFFFF;strokeColor=#FFFFFF;fontColor=#4D4D4D;container=0;" vertex="1" parent="hJn6VOcHcaZgcwKhEHTm-1">
          <mxGeometry y="20" width="168.8" height="16.88" as="geometry" />
        </mxCell>
        <mxCell id="hJn6VOcHcaZgcwKhEHTm-3" value="&lt;font color=&quot;#f5bfe9&quot; style=&quot;font-size: 9px;&quot;&gt;CPF&lt;/font&gt;" style="text;fontSize=10;verticalAlign=middle;align=left;spacingTop=2;whiteSpace=wrap;html=1;container=0;" vertex="1" parent="hJn6VOcHcaZgcwKhEHTm-1">
          <mxGeometry width="54" height="20" as="geometry" />
        </mxCell>
        <UserObject label="&lt;font color=&quot;#fff4ff&quot;&gt;Finalizar&lt;/font&gt;" link="data:page/id,qCZ3eRasGXgaiYmvCPpY" id="hJn6VOcHcaZgcwKhEHTm-4">
          <mxCell style="rounded=1;html=1;shadow=0;dashed=0;whiteSpace=wrap;fontSize=10;fillColor=#F5BFE9;align=center;strokeColor=none;fontColor=#333333;container=0;" vertex="1" parent="1">
            <mxGeometry x="357" y="432" width="105.5" height="16.88" as="geometry" />
          </mxCell>
        </UserObject>
        <mxCell id="hJn6VOcHcaZgcwKhEHTm-11" value="" style="group" connectable="0" vertex="1" parent="1">
          <mxGeometry x="325.6" y="299" width="168.8" height="36.879999999999995" as="geometry" />
        </mxCell>
        <mxCell id="hJn6VOcHcaZgcwKhEHTm-12" value="&lt;font color=&quot;#997da4&quot;&gt;2231 1551 6433 8021&lt;/font&gt;" style="whiteSpace=wrap;html=1;shadow=0;dashed=0;fontSize=10;align=left;fillColor=#FFFFFF;strokeColor=#FFFFFF;fontColor=#4D4D4D;container=0;" vertex="1" parent="hJn6VOcHcaZgcwKhEHTm-11">
          <mxGeometry y="20" width="168.8" height="16.88" as="geometry" />
        </mxCell>
        <mxCell id="hJn6VOcHcaZgcwKhEHTm-13" value="&lt;font color=&quot;#f5bfe9&quot; style=&quot;font-size: 9px;&quot;&gt;Número&lt;/font&gt;" style="text;fontSize=10;verticalAlign=middle;align=left;spacingTop=2;whiteSpace=wrap;html=1;container=0;" vertex="1" parent="hJn6VOcHcaZgcwKhEHTm-11">
          <mxGeometry width="54" height="20" as="geometry" />
        </mxCell>
        <mxCell id="hJn6VOcHcaZgcwKhEHTm-15" value="" style="group" connectable="0" vertex="1" parent="1">
          <mxGeometry x="420.6" y="375" width="74.39999999999998" height="36.879999999999995" as="geometry" />
        </mxCell>
        <mxCell id="hJn6VOcHcaZgcwKhEHTm-9" value="&lt;font color=&quot;#997da4&quot;&gt;271&lt;/font&gt;" style="whiteSpace=wrap;html=1;shadow=0;dashed=0;fontSize=10;align=center;fillColor=#FFFFFF;strokeColor=#FFFFFF;fontColor=#4D4D4D;container=0;" vertex="1" parent="hJn6VOcHcaZgcwKhEHTm-15">
          <mxGeometry y="20" width="74.4" height="16.88" as="geometry" />
        </mxCell>
        <mxCell id="hJn6VOcHcaZgcwKhEHTm-10" value="&lt;font color=&quot;#f5bfe9&quot; style=&quot;font-size: 9px;&quot;&gt;CVV&lt;/font&gt;" style="text;fontSize=10;verticalAlign=middle;align=center;spacingTop=2;whiteSpace=wrap;html=1;container=0;" vertex="1" parent="hJn6VOcHcaZgcwKhEHTm-15">
          <mxGeometry width="74.4" height="20" as="geometry" />
        </mxCell>
        <mxCell id="hJn6VOcHcaZgcwKhEHTm-16" value="" style="group" connectable="0" vertex="1" parent="1">
          <mxGeometry x="326" y="374" width="74" height="36.879999999999995" as="geometry" />
        </mxCell>
        <mxCell id="hJn6VOcHcaZgcwKhEHTm-6" value="&lt;font color=&quot;#997da4&quot;&gt;03/26&lt;/font&gt;" style="whiteSpace=wrap;html=1;shadow=0;dashed=0;fontSize=10;align=center;fillColor=#FFFFFF;strokeColor=#FFFFFF;fontColor=#4D4D4D;container=0;" vertex="1" parent="hJn6VOcHcaZgcwKhEHTm-16">
          <mxGeometry y="20" width="74" height="16.88" as="geometry" />
        </mxCell>
        <mxCell id="hJn6VOcHcaZgcwKhEHTm-7" value="&lt;font color=&quot;#f5bfe9&quot; style=&quot;font-size: 9px;&quot;&gt;Validade&lt;/font&gt;" style="text;fontSize=10;verticalAlign=middle;align=center;spacingTop=2;whiteSpace=wrap;html=1;container=0;" vertex="1" parent="hJn6VOcHcaZgcwKhEHTm-16">
          <mxGeometry width="74" height="20" as="geometry" />
        </mxCell>
      </root>
    </mxGraphModel>
  </diagram>
  <diagram id="57h_AQZXzBzCqInqmfmL" name="Cadastro Profissional">
    <mxGraphModel grid="1" page="1" gridSize="10" guides="1" tooltips="1" connect="1" arrows="1" fold="1" pageScale="1" pageWidth="827" pageHeight="1169" math="0" shadow="0">
      <root>
        <mxCell id="0" />
        <mxCell id="1" parent="0" />
        <mxCell id="nWN59PZV1aZZxuVvBn6A-1" value="" style="group" connectable="0" vertex="1" parent="1">
          <mxGeometry x="310" y="170" width="200" height="390" as="geometry" />
        </mxCell>
        <mxCell id="nWN59PZV1aZZxuVvBn6A-2" value="" style="group;fillColor=default;container=0;" connectable="0" vertex="1" parent="nWN59PZV1aZZxuVvBn6A-1">
          <mxGeometry width="200" height="390" as="geometry" />
        </mxCell>
        <mxCell id="nWN59PZV1aZZxuVvBn6A-3" value="" style="verticalLabelPosition=bottom;verticalAlign=top;html=1;shadow=0;dashed=0;strokeWidth=1;shape=mxgraph.android.phone2;strokeColor=#c0c0c0;" vertex="1" parent="nWN59PZV1aZZxuVvBn6A-1">
          <mxGeometry width="200" height="390" as="geometry" />
        </mxCell>
        <mxCell id="nWN59PZV1aZZxuVvBn6A-4" value="" style="rounded=0;whiteSpace=wrap;html=1;fillColor=#FFF4FF;strokeColor=none;rotation=0;" vertex="1" parent="nWN59PZV1aZZxuVvBn6A-1">
          <mxGeometry x="8" y="35" width="185" height="319" as="geometry" />
        </mxCell>
        <mxCell id="nWN59PZV1aZZxuVvBn6A-5" value="" style="strokeWidth=1;html=1;shadow=0;dashed=0;shape=mxgraph.android.statusBar;align=center;fillColor=#000000;strokeColor=#ffffff;fontColor=#ffffff;fontSize=10;sketch=0;rotation=0;" vertex="1" parent="nWN59PZV1aZZxuVvBn6A-1">
          <mxGeometry x="8" y="35" width="185" height="15.825" as="geometry" />
        </mxCell>
        <mxCell id="gGAR1wMow3gKeksL-N_f-1" value="" style="group" connectable="0" vertex="1" parent="1">
          <mxGeometry x="318" y="220.82" width="185" height="16.879999999999995" as="geometry" />
        </mxCell>
        <mxCell id="gGAR1wMow3gKeksL-N_f-2" value="&lt;font color=&quot;#fff4ff&quot;&gt;Cadastro&lt;/font&gt;" style="whiteSpace=wrap;html=1;shadow=0;dashed=0;fontSize=10;align=left;fillColor=#BBE7E3;strokeColor=none;fontColor=#FFFFFF;rotation=0;movable=1;resizable=1;rotatable=1;deletable=1;editable=1;locked=0;connectable=1;" vertex="1" parent="gGAR1wMow3gKeksL-N_f-1">
          <mxGeometry x="13" width="172" height="16.88" as="geometry" />
        </mxCell>
        <UserObject label="" link="data:page/id,BIANiUHFErxnDz7vMMGn" id="gGAR1wMow3gKeksL-N_f-3">
          <mxCell style="rounded=0;whiteSpace=wrap;html=1;strokeColor=none;rotation=0;fillColor=#BBE7E3;movable=1;resizable=1;rotatable=1;deletable=1;editable=1;locked=0;connectable=1;" vertex="1" parent="gGAR1wMow3gKeksL-N_f-1">
            <mxGeometry width="12.8" height="16.88" as="geometry" />
          </mxCell>
        </UserObject>
        <mxCell id="gGAR1wMow3gKeksL-N_f-4" value="" style="html=1;verticalLabelPosition=bottom;align=center;labelBackgroundColor=#ffffff;verticalAlign=top;strokeWidth=1;strokeColor=#FFF4FF;shadow=0;dashed=0;shape=mxgraph.ios7.icons.play;rotation=-180;fillColor=#BBE7E3;movable=1;resizable=1;rotatable=1;deletable=1;editable=1;locked=0;connectable=1;" vertex="1" parent="gGAR1wMow3gKeksL-N_f-1">
          <mxGeometry x="3.000000000000001" y="5" width="7" height="7" as="geometry" />
        </mxCell>
        <mxCell id="tSkYMlucn2x7KoZJvG8c-5" value="" style="group" connectable="0" vertex="1" parent="1">
          <mxGeometry x="324.6" y="242" width="170.2" height="270.88" as="geometry" />
        </mxCell>
        <mxCell id="ogKsKT-F6_NZhl11Bauv-1" value="" style="group" connectable="0" vertex="1" parent="tSkYMlucn2x7KoZJvG8c-5">
          <mxGeometry x="1" y="37" width="168.8" height="36.879999999999995" as="geometry" />
        </mxCell>
        <mxCell id="ogKsKT-F6_NZhl11Bauv-2" value="&lt;font color=&quot;#8ebbbf&quot;&gt;douggonsouza@gmail.com&lt;/font&gt;" style="whiteSpace=wrap;html=1;shadow=0;dashed=0;fontSize=10;align=left;fillColor=#FFFFFF;strokeColor=#FFFFFF;fontColor=#4D4D4D;container=0;" vertex="1" parent="ogKsKT-F6_NZhl11Bauv-1">
          <mxGeometry y="20" width="168.8" height="16.88" as="geometry" />
        </mxCell>
        <mxCell id="ogKsKT-F6_NZhl11Bauv-3" value="&lt;font color=&quot;#bbe7e3&quot; style=&quot;font-size: 9px;&quot;&gt;E-mail&lt;/font&gt;" style="text;fontSize=10;verticalAlign=middle;align=left;spacingTop=2;whiteSpace=wrap;html=1;container=0;" vertex="1" parent="ogKsKT-F6_NZhl11Bauv-1">
          <mxGeometry width="54" height="20" as="geometry" />
        </mxCell>
        <UserObject label="&lt;font color=&quot;#fff4ff&quot;&gt;Próximo&lt;/font&gt;" id="ogKsKT-F6_NZhl11Bauv-4">
          <mxCell style="rounded=1;html=1;shadow=0;dashed=0;whiteSpace=wrap;fontSize=10;fillColor=#BBE7E3;align=center;strokeColor=none;fontColor=#333333;container=0;" vertex="1" parent="tSkYMlucn2x7KoZJvG8c-5">
            <mxGeometry x="32.39999999999998" y="254" width="105.5" height="16.88" as="geometry" />
          </mxCell>
        </UserObject>
        <mxCell id="ogKsKT-F6_NZhl11Bauv-5" value="" style="group" connectable="0" vertex="1" parent="tSkYMlucn2x7KoZJvG8c-5">
          <mxGeometry x="1.3999999999999773" y="131" width="168.8" height="36.879999999999995" as="geometry" />
        </mxCell>
        <mxCell id="ogKsKT-F6_NZhl11Bauv-6" value="&lt;font color=&quot;#8ebbbf&quot;&gt;*********&lt;/font&gt;" style="whiteSpace=wrap;html=1;shadow=0;dashed=0;fontSize=10;align=left;fillColor=#FFFFFF;strokeColor=#FFFFFF;fontColor=#4D4D4D;container=0;" vertex="1" parent="ogKsKT-F6_NZhl11Bauv-5">
          <mxGeometry y="40" width="168.8" height="16.88" as="geometry" />
        </mxCell>
        <mxCell id="ogKsKT-F6_NZhl11Bauv-7" value="&lt;font color=&quot;#bbe7e3&quot; style=&quot;font-size: 9px;&quot;&gt;Senha&lt;/font&gt;" style="text;fontSize=10;verticalAlign=middle;align=left;spacingTop=2;whiteSpace=wrap;html=1;container=0;" vertex="1" parent="ogKsKT-F6_NZhl11Bauv-5">
          <mxGeometry y="20" width="54" height="20" as="geometry" />
        </mxCell>
        <mxCell id="ogKsKT-F6_NZhl11Bauv-8" value="" style="group" connectable="0" vertex="1" parent="tSkYMlucn2x7KoZJvG8c-5">
          <mxGeometry x="1" y="188" width="168.8" height="36.879999999999995" as="geometry" />
        </mxCell>
        <mxCell id="ogKsKT-F6_NZhl11Bauv-9" value="&lt;font color=&quot;#8ebbbf&quot;&gt;*********&lt;/font&gt;" style="whiteSpace=wrap;html=1;shadow=0;dashed=0;fontSize=10;align=left;fillColor=#FFFFFF;strokeColor=#FFFFFF;fontColor=#4D4D4D;container=0;" vertex="1" parent="ogKsKT-F6_NZhl11Bauv-8">
          <mxGeometry y="20" width="168.8" height="16.88" as="geometry" />
        </mxCell>
        <mxCell id="ogKsKT-F6_NZhl11Bauv-10" value="&lt;font color=&quot;#bbe7e3&quot; style=&quot;font-size: 9px;&quot;&gt;Confirma Senha&lt;/font&gt;" style="text;fontSize=10;verticalAlign=middle;align=left;spacingTop=2;whiteSpace=wrap;html=1;container=0;" vertex="1" parent="ogKsKT-F6_NZhl11Bauv-8">
          <mxGeometry width="80" height="20" as="geometry" />
        </mxCell>
        <mxCell id="ogKsKT-F6_NZhl11Bauv-11" value="" style="group" connectable="0" vertex="1" parent="tSkYMlucn2x7KoZJvG8c-5">
          <mxGeometry x="1" width="168.8" height="36.879999999999995" as="geometry" />
        </mxCell>
        <mxCell id="ogKsKT-F6_NZhl11Bauv-12" value="&lt;font color=&quot;#8ebbbf&quot;&gt;Douglas Gonçalves de Souza&lt;/font&gt;" style="whiteSpace=wrap;html=1;shadow=0;dashed=0;fontSize=10;align=left;fillColor=#FFFFFF;strokeColor=#FFFFFF;fontColor=#4D4D4D;container=0;" vertex="1" parent="ogKsKT-F6_NZhl11Bauv-11">
          <mxGeometry y="20" width="168.8" height="16.88" as="geometry" />
        </mxCell>
        <mxCell id="ogKsKT-F6_NZhl11Bauv-13" value="&lt;font color=&quot;#bbe7e3&quot; style=&quot;font-size: 9px;&quot;&gt;Nome&lt;/font&gt;" style="text;fontSize=10;verticalAlign=middle;align=left;spacingTop=2;whiteSpace=wrap;html=1;container=0;" vertex="1" parent="ogKsKT-F6_NZhl11Bauv-11">
          <mxGeometry width="54" height="20" as="geometry" />
        </mxCell>
        <mxCell id="Y-YA-VjSHik0NHPqd89U-1" value="" style="group" connectable="0" vertex="1" parent="tSkYMlucn2x7KoZJvG8c-5">
          <mxGeometry x="1" y="233" width="165" height="12.5" as="geometry" />
        </mxCell>
        <mxCell id="Y-YA-VjSHik0NHPqd89U-2" value="&lt;font style=&quot;color: rgb(187, 231, 227); border-color: var(--border-color);&quot;&gt;Concordo com os &#39;&lt;/font&gt;&lt;font color=&quot;#8ebbbf&quot; style=&quot;border-color: var(--border-color);&quot;&gt;Termos de Aceite&lt;/font&gt;&lt;font style=&quot;color: rgb(187, 231, 227); border-color: var(--border-color);&quot;&gt;&#39;&amp;nbsp;&lt;/font&gt;" style="strokeColor=inherit;fillColor=inherit;gradientColor=inherit;shape=transparent;html=1;align=left;spacingLeft=10;fontSize=8;fontColor=#33b5e5;container=0;" vertex="1" parent="Y-YA-VjSHik0NHPqd89U-1">
          <mxGeometry width="165" height="12.5" as="geometry" />
        </mxCell>
        <mxCell id="Y-YA-VjSHik0NHPqd89U-3" value="" style="strokeColor=inherit;fillColor=inherit;gradientColor=inherit;shape=transparent;" vertex="1" parent="Y-YA-VjSHik0NHPqd89U-1">
          <mxGeometry y="7" as="geometry" />
        </mxCell>
        <mxCell id="Y-YA-VjSHik0NHPqd89U-4" value="" style="strokeColor=#000000;fillColor=#FFF4FF;strokeWidth=1;html=1;shadow=0;dashed=0;shape=mxgraph.android.checkbox;rSize=0;resizable=0;" vertex="1" parent="Y-YA-VjSHik0NHPqd89U-3">
          <mxGeometry x="2.5" y="-2.5" width="5" height="5" as="geometry" />
        </mxCell>
        <mxCell id="6fHp4akLR4exiH0rqQDd-1" value="" style="group" connectable="0" vertex="1" parent="tSkYMlucn2x7KoZJvG8c-5">
          <mxGeometry x="1" y="74" width="168.8" height="36.879999999999995" as="geometry" />
        </mxCell>
        <mxCell id="6fHp4akLR4exiH0rqQDd-2" value="&lt;font color=&quot;#8ebbbf&quot;&gt;Obstetra&lt;/font&gt;" style="whiteSpace=wrap;html=1;shadow=0;dashed=0;fontSize=10;align=left;fillColor=#FFFFFF;strokeColor=#FFFFFF;fontColor=#4D4D4D;container=0;" vertex="1" parent="6fHp4akLR4exiH0rqQDd-1">
          <mxGeometry y="20" width="168.8" height="16.88" as="geometry" />
        </mxCell>
        <mxCell id="6fHp4akLR4exiH0rqQDd-3" value="&lt;font color=&quot;#bbe7e3&quot; style=&quot;font-size: 9px;&quot;&gt;Especialidade&lt;/font&gt;" style="text;fontSize=10;verticalAlign=middle;align=left;spacingTop=2;whiteSpace=wrap;html=1;container=0;" vertex="1" parent="6fHp4akLR4exiH0rqQDd-1">
          <mxGeometry width="60" height="20" as="geometry" />
        </mxCell>
        <mxCell id="tSkYMlucn2x7KoZJvG8c-1" value="" style="group" connectable="0" vertex="1" parent="tSkYMlucn2x7KoZJvG8c-5">
          <mxGeometry y="112" width="168.8" height="36.879999999999995" as="geometry" />
        </mxCell>
        <mxCell id="tSkYMlucn2x7KoZJvG8c-2" value="&lt;font color=&quot;#8ebbbf&quot;&gt;033.089.544.90&lt;/font&gt;" style="whiteSpace=wrap;html=1;shadow=0;dashed=0;fontSize=10;align=left;fillColor=#FFFFFF;strokeColor=#FFFFFF;fontColor=#4D4D4D;container=0;" vertex="1" parent="tSkYMlucn2x7KoZJvG8c-1">
          <mxGeometry y="21" width="168.8" height="16.88" as="geometry" />
        </mxCell>
        <mxCell id="tSkYMlucn2x7KoZJvG8c-3" value="&lt;font color=&quot;#bbe7e3&quot; style=&quot;font-size: 9px;&quot;&gt;Especialidade&lt;/font&gt;" style="text;fontSize=10;verticalAlign=middle;align=left;spacingTop=2;whiteSpace=wrap;html=1;container=0;" vertex="1" parent="tSkYMlucn2x7KoZJvG8c-1">
          <mxGeometry y="1" width="60" height="20" as="geometry" />
        </mxCell>
      </root>
    </mxGraphModel>
  </diagram>
  <diagram name="Perfil" id="avlN21Lwitfdxyjf4LZ4">
    <mxGraphModel dx="1364" dy="761" grid="1" gridSize="10" guides="1" tooltips="1" connect="1" arrows="1" fold="1" page="1" pageScale="1" pageWidth="827" pageHeight="1169" math="0" shadow="0">
      <root>
        <mxCell id="ysoudCaHLKescwTQsPsj-0" />
        <mxCell id="ysoudCaHLKescwTQsPsj-1" parent="ysoudCaHLKescwTQsPsj-0" />
        <mxCell id="ysoudCaHLKescwTQsPsj-2" value="" style="group" parent="ysoudCaHLKescwTQsPsj-1" connectable="0" vertex="1">
          <mxGeometry x="310" y="170" width="200" height="390" as="geometry" />
        </mxCell>
        <mxCell id="ysoudCaHLKescwTQsPsj-3" value="" style="group;fillColor=default;container=0;" parent="ysoudCaHLKescwTQsPsj-2" connectable="0" vertex="1">
          <mxGeometry width="200" height="390" as="geometry" />
        </mxCell>
        <mxCell id="ysoudCaHLKescwTQsPsj-4" value="" style="verticalLabelPosition=bottom;verticalAlign=top;html=1;shadow=0;dashed=0;strokeWidth=1;shape=mxgraph.android.phone2;strokeColor=#c0c0c0;" parent="ysoudCaHLKescwTQsPsj-2" vertex="1">
          <mxGeometry width="200" height="390" as="geometry" />
        </mxCell>
        <mxCell id="ysoudCaHLKescwTQsPsj-5" value="" style="rounded=0;whiteSpace=wrap;html=1;fillColor=#FFF4FF;strokeColor=none;rotation=0;" parent="ysoudCaHLKescwTQsPsj-2" vertex="1">
          <mxGeometry x="8" y="35" width="185" height="319" as="geometry" />
        </mxCell>
        <mxCell id="ysoudCaHLKescwTQsPsj-6" value="" style="strokeWidth=1;html=1;shadow=0;dashed=0;shape=mxgraph.android.statusBar;align=center;fillColor=#000000;strokeColor=#ffffff;fontColor=#ffffff;fontSize=10;sketch=0;rotation=0;" parent="ysoudCaHLKescwTQsPsj-2" vertex="1">
          <mxGeometry x="8" y="35" width="185" height="15.825" as="geometry" />
        </mxCell>
        <mxCell id="ysoudCaHLKescwTQsPsj-7" value="" style="group" parent="ysoudCaHLKescwTQsPsj-2" connectable="0" vertex="1">
          <mxGeometry x="15.600000000000023" y="242" width="168.8" height="36.879999999999995" as="geometry" />
        </mxCell>
        <mxCell id="ysoudCaHLKescwTQsPsj-8" value="&lt;font color=&quot;#997da4&quot;&gt;a.albaroti@gmail.com&lt;/font&gt;" style="whiteSpace=wrap;html=1;shadow=0;dashed=0;fontSize=10;align=left;fillColor=#FFFFFF;strokeColor=#FFFFFF;fontColor=#4D4D4D;container=0;" parent="ysoudCaHLKescwTQsPsj-7" vertex="1">
          <mxGeometry y="20" width="168.8" height="16.88" as="geometry" />
        </mxCell>
        <mxCell id="ysoudCaHLKescwTQsPsj-9" value="&lt;font color=&quot;#f5bfe9&quot; style=&quot;font-size: 9px;&quot;&gt;E-mail&lt;/font&gt;" style="text;fontSize=10;verticalAlign=middle;align=left;spacingTop=2;whiteSpace=wrap;html=1;container=0;" parent="ysoudCaHLKescwTQsPsj-7" vertex="1">
          <mxGeometry width="54" height="20" as="geometry" />
        </mxCell>
        <mxCell id="1vCh-q4HQbUtZoGzWAZD-0" value="" style="verticalLabelPosition=bottom;verticalAlign=top;html=1;shadow=0;dashed=0;strokeWidth=1;shape=mxgraph.android.contact_badge_normal;sketch=0;" parent="ysoudCaHLKescwTQsPsj-2" vertex="1">
          <mxGeometry x="60" y="114" width="80" height="90" as="geometry" />
        </mxCell>
        <mxCell id="ysoudCaHLKescwTQsPsj-14" value="" style="group" parent="ysoudCaHLKescwTQsPsj-1" connectable="0" vertex="1">
          <mxGeometry x="318" y="220.82" width="185" height="16.879999999999995" as="geometry" />
        </mxCell>
        <mxCell id="ysoudCaHLKescwTQsPsj-15" value="&lt;font color=&quot;#fff4ff&quot;&gt;Cadastro&lt;br&gt;&lt;/font&gt;" style="whiteSpace=wrap;html=1;shadow=0;dashed=0;fontSize=10;align=left;fillColor=#F5BFE9;strokeColor=none;fontColor=#FFFFFF;rotation=0;movable=1;resizable=1;rotatable=1;deletable=1;editable=1;locked=0;connectable=1;" parent="ysoudCaHLKescwTQsPsj-14" vertex="1">
          <mxGeometry x="13" width="172" height="16.88" as="geometry" />
        </mxCell>
        <UserObject label="" link="data:page/id,qCZ3eRasGXgaiYmvCPpY" id="ysoudCaHLKescwTQsPsj-16">
          <mxCell style="rounded=0;whiteSpace=wrap;html=1;strokeColor=none;rotation=0;fillColor=#F5BFE9;movable=1;resizable=1;rotatable=1;deletable=1;editable=1;locked=0;connectable=1;" parent="ysoudCaHLKescwTQsPsj-14" vertex="1">
            <mxGeometry width="12.8" height="16.88" as="geometry" />
          </mxCell>
        </UserObject>
        <mxCell id="ysoudCaHLKescwTQsPsj-17" value="" style="html=1;verticalLabelPosition=bottom;align=center;labelBackgroundColor=#ffffff;verticalAlign=top;strokeWidth=1;strokeColor=#FFF4FF;shadow=0;dashed=0;shape=mxgraph.ios7.icons.play;rotation=-180;fillColor=#F5BFE9;movable=1;resizable=1;rotatable=1;deletable=1;editable=1;locked=0;connectable=1;" parent="ysoudCaHLKescwTQsPsj-14" vertex="1">
          <mxGeometry x="3.000000000000001" y="5" width="7" height="7" as="geometry" />
        </mxCell>
        <UserObject label="&lt;font color=&quot;#fff4ff&quot;&gt;Gravar&lt;br&gt;&lt;/font&gt;" link="data:page/id,qCZ3eRasGXgaiYmvCPpY" id="ysoudCaHLKescwTQsPsj-18">
          <mxCell style="rounded=1;html=1;shadow=0;dashed=0;whiteSpace=wrap;fontSize=10;fillColor=#F5BFE9;align=center;strokeColor=none;fontColor=#333333;container=0;" parent="ysoudCaHLKescwTQsPsj-1" vertex="1">
            <mxGeometry x="357" y="462" width="105.5" height="16.88" as="geometry" />
          </mxCell>
        </UserObject>
        <mxCell id="ysoudCaHLKescwTQsPsj-25" value="" style="group" parent="ysoudCaHLKescwTQsPsj-1" connectable="0" vertex="1">
          <mxGeometry x="325.6" y="375" width="168.8" height="36.879999999999995" as="geometry" />
        </mxCell>
        <mxCell id="ysoudCaHLKescwTQsPsj-26" value="&lt;font color=&quot;#997da4&quot;&gt;Andréia Albaroti G. de Souza&lt;/font&gt;" style="whiteSpace=wrap;html=1;shadow=0;dashed=0;fontSize=10;align=left;fillColor=#FFFFFF;strokeColor=#FFFFFF;fontColor=#4D4D4D;container=0;" parent="ysoudCaHLKescwTQsPsj-25" vertex="1">
          <mxGeometry y="20" width="168.8" height="16.88" as="geometry" />
        </mxCell>
        <mxCell id="ysoudCaHLKescwTQsPsj-27" value="&lt;font color=&quot;#f5bfe9&quot; style=&quot;font-size: 9px;&quot;&gt;Nome&lt;/font&gt;" style="text;fontSize=10;verticalAlign=middle;align=left;spacingTop=2;whiteSpace=wrap;html=1;container=0;" parent="ysoudCaHLKescwTQsPsj-25" vertex="1">
          <mxGeometry width="54" height="20" as="geometry" />
        </mxCell>
      </root>
    </mxGraphModel>
  </diagram>
  <diagram name="Marcar Consulta" id="ms2PnofPs8WfwoOaWwyV">
    <mxGraphModel dx="1364" dy="761" grid="1" gridSize="10" guides="1" tooltips="1" connect="1" arrows="1" fold="1" page="1" pageScale="1" pageWidth="827" pageHeight="1169" math="0" shadow="0">
      <root>
        <mxCell id="4X-W6au36_oIoKeqqNzi-0" />
        <mxCell id="4X-W6au36_oIoKeqqNzi-1" parent="4X-W6au36_oIoKeqqNzi-0" />
        <mxCell id="4X-W6au36_oIoKeqqNzi-2" value="" style="group" parent="4X-W6au36_oIoKeqqNzi-1" connectable="0" vertex="1">
          <mxGeometry x="310" y="170" width="200" height="390" as="geometry" />
        </mxCell>
        <mxCell id="4X-W6au36_oIoKeqqNzi-3" value="" style="group;fillColor=default;container=0;" parent="4X-W6au36_oIoKeqqNzi-2" connectable="0" vertex="1">
          <mxGeometry width="200" height="390" as="geometry" />
        </mxCell>
        <mxCell id="4X-W6au36_oIoKeqqNzi-4" value="" style="verticalLabelPosition=bottom;verticalAlign=top;html=1;shadow=0;dashed=0;strokeWidth=1;shape=mxgraph.android.phone2;strokeColor=#c0c0c0;" parent="4X-W6au36_oIoKeqqNzi-2" vertex="1">
          <mxGeometry width="200" height="390" as="geometry" />
        </mxCell>
        <mxCell id="4X-W6au36_oIoKeqqNzi-5" value="" style="rounded=0;whiteSpace=wrap;html=1;fillColor=#FFF4FF;strokeColor=none;rotation=0;" parent="4X-W6au36_oIoKeqqNzi-2" vertex="1">
          <mxGeometry x="8" y="35" width="185" height="319" as="geometry" />
        </mxCell>
        <mxCell id="4X-W6au36_oIoKeqqNzi-6" value="" style="strokeWidth=1;html=1;shadow=0;dashed=0;shape=mxgraph.android.statusBar;align=center;fillColor=#000000;strokeColor=#ffffff;fontColor=#ffffff;fontSize=10;sketch=0;rotation=0;" parent="4X-W6au36_oIoKeqqNzi-2" vertex="1">
          <mxGeometry x="8" y="35" width="185" height="15.825" as="geometry" />
        </mxCell>
        <mxCell id="3l9B4M-oVPEsHhB_LA_G-14" value="" style="group" parent="4X-W6au36_oIoKeqqNzi-2" connectable="0" vertex="1">
          <mxGeometry x="16" y="211" width="80" height="36.879999999999995" as="geometry" />
        </mxCell>
        <mxCell id="3l9B4M-oVPEsHhB_LA_G-10" value="&lt;font color=&quot;#997da4&quot;&gt;11/09/2023&lt;/font&gt;" style="whiteSpace=wrap;html=1;shadow=0;dashed=0;fontSize=10;align=left;fillColor=#FFFFFF;strokeColor=#FFFFFF;fontColor=#4D4D4D;container=0;" parent="3l9B4M-oVPEsHhB_LA_G-14" vertex="1">
          <mxGeometry y="20" width="80" height="16.88" as="geometry" />
        </mxCell>
        <mxCell id="3l9B4M-oVPEsHhB_LA_G-11" value="&lt;font color=&quot;#f5bfe9&quot; style=&quot;font-size: 9px;&quot;&gt;Data&lt;/font&gt;" style="text;fontSize=10;verticalAlign=middle;align=left;spacingTop=2;whiteSpace=wrap;html=1;container=0;" parent="3l9B4M-oVPEsHhB_LA_G-14" vertex="1">
          <mxGeometry width="80" height="20" as="geometry" />
        </mxCell>
        <mxCell id="3l9B4M-oVPEsHhB_LA_G-15" value="" style="group" parent="4X-W6au36_oIoKeqqNzi-2" connectable="0" vertex="1">
          <mxGeometry x="105" y="211" width="80" height="36.879999999999995" as="geometry" />
        </mxCell>
        <mxCell id="3l9B4M-oVPEsHhB_LA_G-16" value="&lt;font color=&quot;#997da4&quot;&gt;14:45&lt;/font&gt;" style="whiteSpace=wrap;html=1;shadow=0;dashed=0;fontSize=10;align=left;fillColor=#FFFFFF;strokeColor=#FFFFFF;fontColor=#4D4D4D;container=0;" parent="3l9B4M-oVPEsHhB_LA_G-15" vertex="1">
          <mxGeometry y="20" width="80" height="16.88" as="geometry" />
        </mxCell>
        <mxCell id="3l9B4M-oVPEsHhB_LA_G-17" value="&lt;font color=&quot;#f5bfe9&quot; style=&quot;font-size: 9px;&quot;&gt;Horário&lt;/font&gt;" style="text;fontSize=10;verticalAlign=middle;align=left;spacingTop=2;whiteSpace=wrap;html=1;container=0;" parent="3l9B4M-oVPEsHhB_LA_G-15" vertex="1">
          <mxGeometry width="80" height="20" as="geometry" />
        </mxCell>
        <mxCell id="4X-W6au36_oIoKeqqNzi-14" value="" style="group" parent="4X-W6au36_oIoKeqqNzi-1" connectable="0" vertex="1">
          <mxGeometry x="318" y="220.82" width="185" height="16.879999999999995" as="geometry" />
        </mxCell>
        <mxCell id="4X-W6au36_oIoKeqqNzi-15" value="&lt;font color=&quot;#fff4ff&quot;&gt;Marcar Consulta&lt;br&gt;&lt;/font&gt;" style="whiteSpace=wrap;html=1;shadow=0;dashed=0;fontSize=10;align=left;fillColor=#F5BFE9;strokeColor=none;fontColor=#FFFFFF;rotation=0;movable=1;resizable=1;rotatable=1;deletable=1;editable=1;locked=0;connectable=1;" parent="4X-W6au36_oIoKeqqNzi-14" vertex="1">
          <mxGeometry x="13" width="172" height="16.88" as="geometry" />
        </mxCell>
        <UserObject label="" link="data:page/id,qCZ3eRasGXgaiYmvCPpY" id="4X-W6au36_oIoKeqqNzi-16">
          <mxCell style="rounded=0;whiteSpace=wrap;html=1;strokeColor=none;rotation=0;fillColor=#F5BFE9;movable=1;resizable=1;rotatable=1;deletable=1;editable=1;locked=0;connectable=1;" parent="4X-W6au36_oIoKeqqNzi-14" vertex="1">
            <mxGeometry width="12.8" height="16.88" as="geometry" />
          </mxCell>
        </UserObject>
        <mxCell id="4X-W6au36_oIoKeqqNzi-17" value="" style="html=1;verticalLabelPosition=bottom;align=center;labelBackgroundColor=#ffffff;verticalAlign=top;strokeWidth=1;strokeColor=#FFF4FF;shadow=0;dashed=0;shape=mxgraph.ios7.icons.play;rotation=-180;fillColor=#F5BFE9;movable=1;resizable=1;rotatable=1;deletable=1;editable=1;locked=0;connectable=1;" parent="4X-W6au36_oIoKeqqNzi-14" vertex="1">
          <mxGeometry x="3.000000000000001" y="5" width="7" height="7" as="geometry" />
        </mxCell>
        <UserObject label="&lt;font color=&quot;#fff4ff&quot;&gt;Próximo&lt;/font&gt;" link="data:page/id,qCZ3eRasGXgaiYmvCPpY" id="4X-W6au36_oIoKeqqNzi-18">
          <mxCell style="rounded=1;html=1;shadow=0;dashed=0;whiteSpace=wrap;fontSize=10;fillColor=#F5BFE9;align=center;strokeColor=none;fontColor=#333333;container=0;" parent="4X-W6au36_oIoKeqqNzi-1" vertex="1">
            <mxGeometry x="357" y="428" width="105.5" height="16.88" as="geometry" />
          </mxCell>
        </UserObject>
        <mxCell id="3l9B4M-oVPEsHhB_LA_G-6" value="" style="group" parent="4X-W6au36_oIoKeqqNzi-1" connectable="0" vertex="1">
          <mxGeometry x="326.6" y="307" width="168.8" height="36.879999999999995" as="geometry" />
        </mxCell>
        <mxCell id="3l9B4M-oVPEsHhB_LA_G-7" value="&lt;font color=&quot;#997da4&quot;&gt;Douglas G. de Souza&lt;/font&gt;" style="whiteSpace=wrap;html=1;shadow=0;dashed=0;fontSize=10;align=left;fillColor=#FFFFFF;strokeColor=#FFFFFF;fontColor=#4D4D4D;container=0;" parent="3l9B4M-oVPEsHhB_LA_G-6" vertex="1">
          <mxGeometry y="19" width="168.8" height="16.88" as="geometry" />
        </mxCell>
        <mxCell id="3l9B4M-oVPEsHhB_LA_G-8" value="&lt;font color=&quot;#f5bfe9&quot; style=&quot;font-size: 9px;&quot;&gt;Profissional&lt;/font&gt;" style="text;fontSize=10;verticalAlign=middle;align=left;spacingTop=2;whiteSpace=wrap;html=1;container=0;" parent="3l9B4M-oVPEsHhB_LA_G-6" vertex="1">
          <mxGeometry width="54" height="20" as="geometry" />
        </mxCell>
        <mxCell id="3l9B4M-oVPEsHhB_LA_G-19" value="" style="group" parent="4X-W6au36_oIoKeqqNzi-1" connectable="0" vertex="1">
          <mxGeometry x="326.6" y="344" width="168.8" height="36.879999999999995" as="geometry" />
        </mxCell>
        <mxCell id="3l9B4M-oVPEsHhB_LA_G-20" value="&lt;font color=&quot;#997da4&quot;&gt;Obstetra&lt;/font&gt;" style="whiteSpace=wrap;html=1;shadow=0;dashed=0;fontSize=10;align=left;fillColor=#FFFFFF;strokeColor=#FFFFFF;fontColor=#4D4D4D;container=0;" parent="3l9B4M-oVPEsHhB_LA_G-19" vertex="1">
          <mxGeometry y="20" width="168.8" height="16.88" as="geometry" />
        </mxCell>
        <mxCell id="3l9B4M-oVPEsHhB_LA_G-21" value="&lt;font color=&quot;#f5bfe9&quot; style=&quot;font-size: 9px;&quot;&gt;Especialidade&lt;/font&gt;" style="text;fontSize=10;verticalAlign=middle;align=left;spacingTop=2;whiteSpace=wrap;html=1;container=0;" parent="3l9B4M-oVPEsHhB_LA_G-19" vertex="1">
          <mxGeometry width="60" height="20" as="geometry" />
        </mxCell>
      </root>
    </mxGraphModel>
  </diagram>
  <diagram name="Cancelar Consulta" id="SWnoWLBmneLr6qGvfX-N">
    <mxGraphModel dx="1364" dy="761" grid="1" gridSize="10" guides="1" tooltips="1" connect="1" arrows="1" fold="1" page="1" pageScale="1" pageWidth="827" pageHeight="1169" math="0" shadow="0">
      <root>
        <mxCell id="nm31DU_icuUDQ7z0QD3G-0" />
        <mxCell id="nm31DU_icuUDQ7z0QD3G-1" parent="nm31DU_icuUDQ7z0QD3G-0" />
        <mxCell id="nm31DU_icuUDQ7z0QD3G-2" value="" style="group" connectable="0" vertex="1" parent="nm31DU_icuUDQ7z0QD3G-1">
          <mxGeometry x="310" y="170" width="200" height="390" as="geometry" />
        </mxCell>
        <mxCell id="nm31DU_icuUDQ7z0QD3G-3" value="" style="group;fillColor=default;container=0;" connectable="0" vertex="1" parent="nm31DU_icuUDQ7z0QD3G-2">
          <mxGeometry width="200" height="390" as="geometry" />
        </mxCell>
        <mxCell id="nm31DU_icuUDQ7z0QD3G-4" value="" style="verticalLabelPosition=bottom;verticalAlign=top;html=1;shadow=0;dashed=0;strokeWidth=1;shape=mxgraph.android.phone2;strokeColor=#c0c0c0;" vertex="1" parent="nm31DU_icuUDQ7z0QD3G-2">
          <mxGeometry width="200" height="390" as="geometry" />
        </mxCell>
        <mxCell id="nm31DU_icuUDQ7z0QD3G-5" value="" style="rounded=0;whiteSpace=wrap;html=1;fillColor=#FFF4FF;strokeColor=none;rotation=0;" vertex="1" parent="nm31DU_icuUDQ7z0QD3G-2">
          <mxGeometry x="8" y="35" width="185" height="319" as="geometry" />
        </mxCell>
        <mxCell id="nm31DU_icuUDQ7z0QD3G-6" value="" style="strokeWidth=1;html=1;shadow=0;dashed=0;shape=mxgraph.android.statusBar;align=center;fillColor=#000000;strokeColor=#ffffff;fontColor=#ffffff;fontSize=10;sketch=0;rotation=0;" vertex="1" parent="nm31DU_icuUDQ7z0QD3G-2">
          <mxGeometry x="8" y="35" width="185" height="15.825" as="geometry" />
        </mxCell>
        <mxCell id="nm31DU_icuUDQ7z0QD3G-7" value="" style="group" connectable="0" vertex="1" parent="nm31DU_icuUDQ7z0QD3G-2">
          <mxGeometry x="16" y="211" width="80" height="36.879999999999995" as="geometry" />
        </mxCell>
        <mxCell id="nm31DU_icuUDQ7z0QD3G-8" value="&lt;font color=&quot;#997da4&quot;&gt;11/09/2023&lt;/font&gt;" style="whiteSpace=wrap;html=1;shadow=0;dashed=0;fontSize=10;align=left;fillColor=#FFFFFF;strokeColor=#FFFFFF;fontColor=#4D4D4D;container=0;" vertex="1" parent="nm31DU_icuUDQ7z0QD3G-7">
          <mxGeometry y="20" width="80" height="16.88" as="geometry" />
        </mxCell>
        <mxCell id="nm31DU_icuUDQ7z0QD3G-9" value="&lt;font color=&quot;#f5bfe9&quot; style=&quot;font-size: 9px;&quot;&gt;Data&lt;/font&gt;" style="text;fontSize=10;verticalAlign=middle;align=left;spacingTop=2;whiteSpace=wrap;html=1;container=0;" vertex="1" parent="nm31DU_icuUDQ7z0QD3G-7">
          <mxGeometry width="80" height="20" as="geometry" />
        </mxCell>
        <mxCell id="nm31DU_icuUDQ7z0QD3G-10" value="" style="group" connectable="0" vertex="1" parent="nm31DU_icuUDQ7z0QD3G-2">
          <mxGeometry x="105" y="211" width="80" height="36.879999999999995" as="geometry" />
        </mxCell>
        <mxCell id="nm31DU_icuUDQ7z0QD3G-11" value="&lt;font color=&quot;#997da4&quot;&gt;14:45&lt;/font&gt;" style="whiteSpace=wrap;html=1;shadow=0;dashed=0;fontSize=10;align=left;fillColor=#FFFFFF;strokeColor=#FFFFFF;fontColor=#4D4D4D;container=0;" vertex="1" parent="nm31DU_icuUDQ7z0QD3G-10">
          <mxGeometry y="20" width="80" height="16.88" as="geometry" />
        </mxCell>
        <mxCell id="nm31DU_icuUDQ7z0QD3G-12" value="&lt;font color=&quot;#f5bfe9&quot; style=&quot;font-size: 9px;&quot;&gt;Horário&lt;/font&gt;" style="text;fontSize=10;verticalAlign=middle;align=left;spacingTop=2;whiteSpace=wrap;html=1;container=0;" vertex="1" parent="nm31DU_icuUDQ7z0QD3G-10">
          <mxGeometry width="80" height="20" as="geometry" />
        </mxCell>
        <mxCell id="nm31DU_icuUDQ7z0QD3G-13" value="" style="group" connectable="0" vertex="1" parent="nm31DU_icuUDQ7z0QD3G-1">
          <mxGeometry x="318" y="220.82" width="185" height="16.879999999999995" as="geometry" />
        </mxCell>
        <mxCell id="nm31DU_icuUDQ7z0QD3G-14" value="&lt;font color=&quot;#fff4ff&quot;&gt;Cancelar Consulta&lt;br&gt;&lt;/font&gt;" style="whiteSpace=wrap;html=1;shadow=0;dashed=0;fontSize=10;align=left;fillColor=#F5BFE9;strokeColor=none;fontColor=#FFFFFF;rotation=0;movable=1;resizable=1;rotatable=1;deletable=1;editable=1;locked=0;connectable=1;" vertex="1" parent="nm31DU_icuUDQ7z0QD3G-13">
          <mxGeometry x="13" width="172" height="16.88" as="geometry" />
        </mxCell>
        <UserObject label="" link="data:page/id,qCZ3eRasGXgaiYmvCPpY" id="nm31DU_icuUDQ7z0QD3G-15">
          <mxCell style="rounded=0;whiteSpace=wrap;html=1;strokeColor=none;rotation=0;fillColor=#F5BFE9;movable=1;resizable=1;rotatable=1;deletable=1;editable=1;locked=0;connectable=1;" vertex="1" parent="nm31DU_icuUDQ7z0QD3G-13">
            <mxGeometry width="12.8" height="16.88" as="geometry" />
          </mxCell>
        </UserObject>
        <mxCell id="nm31DU_icuUDQ7z0QD3G-16" value="" style="html=1;verticalLabelPosition=bottom;align=center;labelBackgroundColor=#ffffff;verticalAlign=top;strokeWidth=1;strokeColor=#FFF4FF;shadow=0;dashed=0;shape=mxgraph.ios7.icons.play;rotation=-180;fillColor=#F5BFE9;movable=1;resizable=1;rotatable=1;deletable=1;editable=1;locked=0;connectable=1;" vertex="1" parent="nm31DU_icuUDQ7z0QD3G-13">
          <mxGeometry x="3.000000000000001" y="5" width="7" height="7" as="geometry" />
        </mxCell>
        <UserObject label="&lt;font color=&quot;#fff4ff&quot;&gt;Cancelar&lt;/font&gt;" link="data:page/id,qCZ3eRasGXgaiYmvCPpY" id="nm31DU_icuUDQ7z0QD3G-17">
          <mxCell style="rounded=1;html=1;shadow=0;dashed=0;whiteSpace=wrap;fontSize=10;fillColor=#F5BFE9;align=center;strokeColor=none;fontColor=#333333;container=0;" vertex="1" parent="nm31DU_icuUDQ7z0QD3G-1">
            <mxGeometry x="357" y="428" width="105.5" height="16.88" as="geometry" />
          </mxCell>
        </UserObject>
        <mxCell id="nm31DU_icuUDQ7z0QD3G-18" value="" style="group" connectable="0" vertex="1" parent="nm31DU_icuUDQ7z0QD3G-1">
          <mxGeometry x="326.6" y="307" width="168.8" height="36.879999999999995" as="geometry" />
        </mxCell>
        <mxCell id="nm31DU_icuUDQ7z0QD3G-19" value="&lt;font color=&quot;#997da4&quot;&gt;Douglas G. de Souza&lt;/font&gt;" style="whiteSpace=wrap;html=1;shadow=0;dashed=0;fontSize=10;align=left;fillColor=#FFFFFF;strokeColor=#FFFFFF;fontColor=#4D4D4D;container=0;" vertex="1" parent="nm31DU_icuUDQ7z0QD3G-18">
          <mxGeometry y="19" width="168.8" height="16.88" as="geometry" />
        </mxCell>
        <mxCell id="nm31DU_icuUDQ7z0QD3G-20" value="&lt;font color=&quot;#f5bfe9&quot; style=&quot;font-size: 9px;&quot;&gt;Profissional&lt;/font&gt;" style="text;fontSize=10;verticalAlign=middle;align=left;spacingTop=2;whiteSpace=wrap;html=1;container=0;" vertex="1" parent="nm31DU_icuUDQ7z0QD3G-18">
          <mxGeometry width="54" height="20" as="geometry" />
        </mxCell>
        <mxCell id="nm31DU_icuUDQ7z0QD3G-21" value="" style="group" connectable="0" vertex="1" parent="nm31DU_icuUDQ7z0QD3G-1">
          <mxGeometry x="326.6" y="344" width="168.8" height="36.879999999999995" as="geometry" />
        </mxCell>
        <mxCell id="nm31DU_icuUDQ7z0QD3G-22" value="&lt;font color=&quot;#997da4&quot;&gt;Obstetra&lt;/font&gt;" style="whiteSpace=wrap;html=1;shadow=0;dashed=0;fontSize=10;align=left;fillColor=#FFFFFF;strokeColor=#FFFFFF;fontColor=#4D4D4D;container=0;" vertex="1" parent="nm31DU_icuUDQ7z0QD3G-21">
          <mxGeometry y="20" width="168.8" height="16.88" as="geometry" />
        </mxCell>
        <mxCell id="nm31DU_icuUDQ7z0QD3G-23" value="&lt;font color=&quot;#f5bfe9&quot; style=&quot;font-size: 9px;&quot;&gt;Especialidade&lt;/font&gt;" style="text;fontSize=10;verticalAlign=middle;align=left;spacingTop=2;whiteSpace=wrap;html=1;container=0;" vertex="1" parent="nm31DU_icuUDQ7z0QD3G-21">
          <mxGeometry width="60" height="20" as="geometry" />
        </mxCell>
      </root>
    </mxGraphModel>
  </diagram>
</mxfile>
